<?xml version="1.0" encoding="UTF-8"?>
<svg xmlns="http://www.w3.org/2000/svg" xmlns:xlink="http://www.w3.org/1999/xlink" version="1.1" viewBox="0 0 735 852">
  <defs>
    <style>
      .cls-1, .cls-2 {
        fill: #d53e4f;
      }

      .cls-1, .cls-3 {
        display: none;
      }

      .cls-4 {
        filter: url(#outer-glow-1);
      }

      .cls-5 {
        fill: #abd2a1;
      }

      .cls-5, .cls-6, .cls-7, .cls-8, .cls-9, .cls-10, .cls-11, .cls-12, .cls-13, .cls-2, .cls-14 {
        opacity: .5;
      }

      .cls-15, .cls-16 {
        fill: #231f20;
      }

      .cls-16, .cls-17, .cls-18, .cls-19, .cls-20, .cls-21, .cls-22, .cls-23 {
        stroke: #231f20;
        stroke-miterlimit: 10;
      }

      .cls-16, .cls-19 {
        stroke-width: .2px;
      }

      .cls-6 {
        fill: #e3e798;
      }

      .cls-24 {
        filter: url(#outer-glow-2);
        font-family: FinoSans-Regular, 'Fino Sans';
        font-size: 252.2px;
      }

      .cls-24, .cls-25, .cls-7, .cls-26, .cls-27 {
        fill: #fff;
      }

      .cls-25 {
        opacity: 0;
      }

      .cls-17 {
        fill: url(#radial-gradient);
      }

      .cls-8 {
        fill: #f6ac63;
      }

      .cls-9 {
        fill: #ec6e45;
      }

      .cls-28 {
        fill: #516f6a;
      }

      .cls-18 {
        fill: #808285;
      }

      .cls-29 {
        stroke: #000;
        stroke-linejoin: round;
        stroke-width: .5px;
      }

      .cls-29, .cls-20, .cls-13 {
        fill: none;
      }

      .cls-19 {
        fill: #f1f2f2;
      }

      .cls-20 {
        stroke-width: 5px;
      }

      .cls-10 {
        fill: #ffe08a;
      }

      .cls-11 {
        fill: #3387bd;
      }

      .cls-12 {
        fill: #6bbea3;
      }

      .cls-21 {
        fill: url(#linear-gradient);
      }

      .cls-27 {
        filter: url(#outer-glow-3);
        font-family: CaflischScriptPro-Regular, 'Caflisch Script Pro';
        font-size: 221.7px;
      }

      .cls-22 {
        fill: #58595b;
      }

      .cls-14 {
        fill: #fbf5c0;
      }

      .cls-30 {
        clip-path: url(#clippath);
      }

      .cls-23 {
        fill: #414042;
      }
    </style>
    <clipPath id="clippath">
      <polygon class="cls-13" points="705.8 197 428.2 36.7 367.9 1.9 307.6 36.7 30 197 .7 213.9 .7 637.9 30 654.8 311.1 817.1 368 849.9 424.9 817.1 706 654.8 735.3 637.9 735.3 213.9 705.8 197"/>
    </clipPath>
    <filter id="outer-glow-1" x="508" y="319.9" width="128.6" height="144.7" filterUnits="userSpaceOnUse">
      <feOffset dx="0" dy="0"/>
      <feGaussianBlur result="blur" stdDeviation="5"/>
      <feFlood flood-color="#fff" flood-opacity=".8"/>
      <feComposite in2="blur" operator="in"/>
      <feComposite in="SourceGraphic"/>
    </filter>
    <filter id="outer-glow-2" filterUnits="userSpaceOnUse">
      <feOffset dx="0" dy="0"/>
      <feGaussianBlur result="blur-2" stdDeviation="5"/>
      <feFlood flood-color="#fff" flood-opacity=".8"/>
      <feComposite in2="blur-2" operator="in"/>
      <feComposite in="SourceGraphic"/>
    </filter>
    <filter id="outer-glow-3" filterUnits="userSpaceOnUse">
      <feOffset dx="0" dy="0"/>
      <feGaussianBlur result="blur-3" stdDeviation="5"/>
      <feFlood flood-color="#fff" flood-opacity=".8"/>
      <feComposite in2="blur-3" operator="in"/>
      <feComposite in="SourceGraphic"/>
    </filter>
    <linearGradient id="linear-gradient" x1="-57.6" y1="-474.3" x2="-2.3" y2="-474.3" gradientTransform="translate(112.6 289.2) rotate(-41.7) scale(1 -1)" gradientUnits="userSpaceOnUse">
      <stop offset="0" stop-color="#58595b"/>
      <stop offset="1" stop-color="#d1d3d4"/>
    </linearGradient>
    <radialGradient id="radial-gradient" cx="-27.8" cy="-510.8" fx="-27.8" fy="-510.8" r="29.7" gradientTransform="translate(112.6 289.2) rotate(-41.7) scale(1 -1)" gradientUnits="userSpaceOnUse">
      <stop offset="0" stop-color="#f1f2f2"/>
      <stop offset="1" stop-color="#a7a9ac"/>
    </radialGradient>
  </defs>
  <!-- Generator: Adobe Illustrator 28.7.1, SVG Export Plug-In . SVG Version: 1.2.0 Build 142)  -->
  <g>
    <g id="Layer_1">
      <path class="cls-1" d="M705.6,196.2L427.8,35.8,367.5,1l-60.3,34.8L29.4,196.2.1,213.1v424.2l29.3,16.9,281.3,162.4,56.9,32.8,56.9-32.8,281.3-162.4,29.3-16.9V213.1l-29.5-16.9ZM705.6,621.5l-338.1,195.2L29.4,621.5V231L367.5,35.8h0l338.1,195.2v390.5Z"/>
      <g>
        <polygon class="cls-28" points="311.4 815.3 30.1 652.9 1.6 636.4 1.6 214 30.1 197.5 308 37.1 367.5 2.7 427 37.1 704.8 197.5 733.6 214 733.6 636.4 705.1 652.9 423.8 815.3 367.6 847.7 311.4 815.3"/>
        <path d="M367.5,4.5l58.8,33.9,277.8,160.4,28,16v420.7l-27.8,16-281.3,162.4-55.4,31.9-55.4-31.9L30.9,651.6l-27.8-16V214.8l27.8-16L308.7,38.4l58.8-33.9M367.5,1l-60.3,34.8L29.4,196.2,0,213.1v424.2l29.3,16.9,281.3,162.4,56.9,32.8,56.9-32.8,281.3-162.4,29.3-16.9V213.1l-29.5-16.9L427.8,35.8,367.5,1h0Z"/>
      </g>
    </g>
    <g id="Layer_2" class="cls-3">
      <g class="cls-30">
        <g>
          <rect class="cls-7" x="1.2" y="31.9" width="777.2" height="781.8"/>
          <path class="cls-2" d="M643.7,813.8h134.8v-81h0c0,0-.1,0-.1,0l-1.3.7-5,3-5,1.9h-5c0,0-5-.1-5-.1h-5c0,0-5,.3-5,.3l-5,.7-5,1.3-5,1.5-5,1.6-4.7,2.1h-.3c0,.1-5,3.5-5,3.5l-5,3.9-5,4.1-1.9,1.5-3.1,2-5,3.6-5,3.8-5,2.7-5,.5-5-2.4-5-1.8-5-2.1-5-2.9-5-2.7-2-.8-3-1.3-5-1.4-5-1.2-5-1.1-5-1-5-1.2-5-1.3-5-.5h-5c0-.1-5-.8-5-.8l-5-1.6-4.5-1.7-.5-.2-5-1.6-5-1.2-5-.6-5,.7-5,2-1.5.9-3.5,2.1-5,3.9-5,5.5-.9,1.4-4.1,7.4-2.4,5.6-2.6,7.2-1.8,5.8-3,13-.2,1.2-1.7,11.8-.3,3.1h103.7ZM324.4,813.8h14.3l-1.8-.8-5-.5-5,.7-2.5.7ZM293,654.9l3.9,4.8,5,4.1,5,2.1,5,.5,5-.9,5-1.9,5-3.1,5-4.4,1.2-1.3,3.8-3.9,5-6.2,2.1-2.9,2.9-4.9,3.9-8.1,1.1-3.2,2.9-9.8,2.1-9.9.5-3,1.4-13,.6-13v-13c0,0-.3-13-.3-13l-.8-13-1-13-.5-9.6-.2-3.4-.4-13-.4-13-.3-13-.4-13-.7-13-1.2-13-1.5-10.7-.4-2.2-3.2-13-1.4-3.5-5-9.5h0s-5-6-5-6l-5-5.1-2.2-1.9-2.8-2-5-3.4-5-3.3-5-3.3-1.7-1-3.3-1.7-5-2.1-5-1.3-5-.7-5-.4-5-.7-5-.7-5-.5-5-.2-5-.9-5-1.8-3.6-2.1-1.4-.8-5-3.1-5-2.8-5-2-5-1.3-5-.7-5-.2-5,1.2-5,2.9-5,4.2-2.7,2.5-2.3,2.5-5,6.1-3.6,4.3-1.4,2.3-5,3.8-5,1.1-5,.2-5,1.6-5,2.7-1.7,1.4-3.3,2.7-5,4.8-4.5,5.5-.5.8-5,10.2-.7,1.9-4.3,12.2-.2.8-3.5,13-1.2,6.5-1.1,6.5-.8,13,.7,13,1.2,9.4.5,3.6,2.6,13,1.8,7.6,1.6,5.4,3.4,10.2,1.1,2.7,3.9,8,3.1,5,1.9,2.6,5,5.3,5,3.6,3.4,1.4,1.6.6,5,1.5,5,1.8,5,2.1,5,2.1,5,2.3,5,2.5h0s5,2.7,5,2.7l5,3.4,5,4.1,3.8,2.8,1.2.8,5,2.4,5,1.5,5,1.8,5,2.6,4.7,3.8.3.3,5,5.2,5,6.3.8,1.2,4.2,5.9,4.7,7,.3.4,5,7.4,3.5,5.2,1.5,2.3,5,7.5,2.1,3.2,2.9,4.5,5,7.2,1.1,1.4Z"/>
          <path class="cls-9" d="M367.5,853.6l65.6-39.9h36.7l-2.8-2.9v-.2c-.1,0-5-7-5-7l-3.4-6-1.6-3.1-3.8-9.9-1.2-3.4-2.8-9.6-2.2-8.7-1.1-4.3-3.5-13-.5-1.6-3.6-11.3-1.4-5.2-2.3-7.8-2.7-10.1-.9-2.9-3.6-13-.6-2.6-2.3-10.4-2-13-.7-5.7-1-7.3-1.7-13-1.4-13-.9-12.1v-.9c0,0-.8-13-.8-13l-.9-13-1.6-13-1.6-11-.3-2-2-13-1.4-13v-13s1.3-13,1.3-13l1.9-13,.4-1.8,2.7-11.2,2.3-6.4,2.2-6.6,2.8-7.8,1.6-5.2,2.9-13,.5-4,.9-9,.2-13-1-11.7v-1.2c-.1,0-2.8-13-2.8-13l-2.2-7.9-1.5-5.1-3.5-8.1-2.2-4.9-2.8-4.7-5-7.9-.3-.4-4.7-6.3-5-6.3-.3-.4-4.7-5.2-5-5.3-2.5-2.5-2.5-2.3-5-4.1-5-3.6-4.7-2.9-.3-.2-5-2.2-5-1.4-5-.9-5-.7-5-1-5-1.8-5-2.8-2.8-2.1-2.2-2-5-5.9-3.1-5.1-1.9-3.5-4-9.5-1-2.3-3.9-10.6-1.1-4-2.4-9-2.6-10-.8-3-4-13-.2-.4-5-10.5-1.1-2.1-3.9-4.9-5-5.5-2.8-2.6-2.2-1.5-5-2.9-5-2.2-5-1.4-5-.7h-5c0,.1-5,1.2-5,1.2l-5,2.1-5,3.1-2.7,2.3-2.3,2.8-5,7.7-1.3,2.5-3.7,8.7-1.6,4.3-3.4,8.9-1.4,4.1-3.6,8.6-1.8,4.4-3.2,5.8-4.1,7.2-.9,1.5-5,8.8-1.5,2.7-3.5,6.2-4,6.7-1,1.8-5,8.8-1.4,2.3-3.6,5.7-4.4,7.2-.6.9-5,8-2.3,4.1-2.7,4.1-5,8.5-.2.3-4.8,8.5-2.3,4.4-2.7,4.9-4,8-1,2-4.8,10.9-.2.6-4.5,12.4-.5,1.6-3.6,11.4-1.4,4.8-2.4,8.2-2.6,11-.4,1.9-1.8,13-.4,13,.9,13,1.7,13h0s1.9,13,1.9,13l2.2,13,.9,4.9,1.6,8.1,3.3,13v.3c0,0,4.4,12.7,4.4,12.7l.7,1.8,5,10.9v.2c.1,0,5,8.3,5,8.3l3.4,4.6,1.6,2.2,5,5.7,5,4.6.7.5,4.3,3.5,5,3.6,5,3.8,2.2,2,2.8,3.1,5,7.2,1.6,2.7,3.4,6.8,3,6.1,2,4.8,3.8,8.2,1.2,3,4.4,10,.6,1.4,5,11,.3.6,4.7,8.8,2.5,4.1,2.5,4.3,5,8.1.4.5,4.6,7.3,3.5,5.7,1.5,3,3.8,10,1.2,4.2,2,8.7,1.9,13,.9,13v13s-.6,13-.6,13l-.9,13-1.1,13-.3,3.1h54.7l68.9,39.9ZM498,813.8h42l.3-3.1,1.7-11.8.2-1.2,3-13,1.8-5.8,2.6-7.2,2.4-5.6,4.1-7.4.9-1.4,5-5.5,5-3.9,3.5-2.1,1.5-.9,5-2,5-.7,5,.6,5,1.2,5,1.6.5.2,4.5,1.7,5,1.6,5,.7h5c0,.1,5,.6,5,.6l5,1.3,5,1.2,5,1,5,1.1,5,1.2,5,1.4,3,1.3,2,.8,5,2.7,5,2.9,5,2.1,5,1.8,5,2.4,5-.5,5-2.7,5-3.8,5-3.6,3.1-2,1.9-1.5,5-4.1,5-3.9,5-3.3h.3c0-.1,4.7-2.2,4.7-2.2l5-1.6,5-1.5,5-1.3,5-.7,5-.3h5c0,0,5,.1,5,.1h5c0,0,5-1.9,5-1.9l5-3,1.3-.7h.1v-86.5l-1.5.2-5,.8-5,.9-5,.7-5,.7-5,.8-5,.9-5,.7-5,.3-5-.2-5-.7-5-1.1-5-1.2-5-1.7-5-1.8-5-1.8-5-1.8-1-.3-4-1.4-5-1h-5s-5,.8-5,.8l-4.9,1.6h-.1c0,0-5,2.6-5,2.6l-5,3-5,3.1-5,3.4-1.2.9-3.8,2.9-5,3.6-5,3-5,2.3-3.7,1.2-1.3.5-5,1.7-5,1.7-5,1.8-5,2-5,2.2-5,2.5-.9.5-4.1,2-5,2.2-5,2-5,1.7-5,1.8-5,1.8-4.3,1.5-.7.2-5,2-5,2.8-5,4.1-3.2,3.8-1.8,2.5-5,9.1-.6,1.3-4.4,10.2-1.2,2.8-3.8,9.1-1.7,3.8-3.3,8.5-1.8,4.5-3.2,8.6-1.8,4.4-3.2,8.9-1.7,4.1-3.3,9.4-1.6,3.6-3.4,8.6-2.4,4.4-1.6,3.1ZM296.9,659.8l-3.9-4.8-1.1-1.4-5-7.2-2.9-4.5-2.1-3.2-5-7.5-1.5-2.3-3.5-5.2-5-7.4-.3-.4-4.7-7-4.2-5.9-.8-1.2-5-6.3-5-5.2-.3-.3-4.7-3.8-5-2.6-5-1.8-5-1.5-5-2.4-1.2-.8-3.8-2.8-5-4.1-5-3.4-5-2.7h0s-5-2.5-5-2.5l-5-2.3-5-2.1-5-2.1-5-1.8-5-1.5-1.6-.6-3.4-1.4-5-3.6-5-5.3-1.9-2.6-3.1-5-3.9-8-1.1-2.7-3.4-10.2-1.6-5.4-1.8-7.6-2.6-13-.5-3.6-1.2-9.4-.7-13,.8-13,1.1-6.5,1.2-6.5,3.5-13,.2-.8,4.3-12.2.7-1.9,5-10.2.5-.8,4.5-5.5,5-4.8,3.3-2.7,1.7-1.4,5-2.7,5-1.6,5-.2,5-1.1,5-3.8,1.4-2.3,3.6-4.3,5-6.1,2.3-2.5,2.7-2.5,5-4.2,5-2.9,5-1.2,5,.2,5,.7,5,1.3,5,2,5,2.8,5,3.1,1.4.8,3.6,2.1,5,1.8,5,.9,5,.2,5,.5,5,.7,5,.7,5,.4,5,.7,5,1.3,5,2.1,3.3,1.7,1.7,1,5,3.3,5,3.3,5,3.4,2.8,2,2.2,1.9,5,5.1,5,6h0s5,9.5,5,9.5l1.4,3.5,3.2,13,.4,2.2,1.5,10.7,1.2,13,.7,13,.4,13,.3,13,.4,13,.4,13,.2,3.4.5,9.6,1,13,.8,13,.4,13v13c0,0-.6,13-.6,13l-1.4,13-.5,3-2.1,9.9-2.9,9.8-1.1,3.2-3.9,8.1-2.9,4.9-2.1,2.9-5,6.2-3.8,3.9-1.2,1.3-5,4.4-5,3.1-5,1.9-5,.9-5-.5-5-2.1-5-4.1Z"/>
          <polygon class="cls-8" points="182.8 813.8 185.1 813.8 186.9 813.8 188 813.8 191.9 813.8 193 813.8 196.9 813.8 198 813.8 201.9 813.8 203 813.8 206.9 813.8 208 813.8 211.9 813.8 213 813.8 216.9 813.8 218 813.8 221.9 813.8 223.1 813.8 226.9 813.8 228.1 813.8 231.9 813.8 233.1 813.8 236.9 813.8 238.1 813.8 241.9 813.8 242.1 813.8 243.9 813.8 244.2 810.7 245.3 797.7 246.2 784.7 246.8 771.7 246.8 758.8 245.8 745.8 243.9 732.8 241.9 724.1 240.7 719.8 236.9 709.8 235.4 706.8 231.9 701.2 227.3 693.9 226.9 693.3 221.9 685.2 219.4 680.9 216.9 676.7 212.2 667.9 211.9 667.3 206.9 656.4 206.3 654.9 201.9 645 200.6 641.9 196.9 633.7 194.9 629 191.9 622.8 188.5 616 186.9 613.3 181.8 606.1 179.1 603 176.8 601 171.8 597.1 166.8 593.5 162.5 590 161.8 589.5 156.8 584.9 151.8 579.3 150.2 577 146.8 572.4 142 564.1 141.8 563.8 136.8 552.9 136.1 551.1 131.8 538.4 131.7 538.1 128.5 525.1 126.8 517.1 125.9 512.1 123.7 499.2 121.8 486.2 121.8 486.2 120.1 473.2 119.3 460.2 119.6 447.2 121.4 434.3 121.8 432.3 124.4 421.3 126.8 413.1 128.2 408.3 131.8 396.9 132.3 395.3 136.8 382.9 137.1 382.3 141.8 371.4 142.8 369.4 146.8 361.3 149.6 356.4 151.8 351.9 156.7 343.4 156.8 343.1 161.8 334.6 164.5 330.4 166.8 326.4 171.8 318.4 172.5 317.4 176.8 310.2 180.5 304.5 181.8 302.1 186.9 293.3 187.9 291.5 191.9 284.8 195.4 278.5 196.9 275.8 201.9 267 202.7 265.5 206.9 258.3 210.1 252.6 211.9 248.1 215.5 239.6 216.9 235.5 220.3 226.6 221.9 222.3 225.6 213.6 226.9 211.2 231.9 203.4 234.1 200.6 236.9 198.3 241.9 195.2 246.9 193.1 251.9 192 256.9 191.9 261.9 192.7 266.9 194 271.9 196.2 276.9 199.1 279 200.6 281.9 203.2 286.9 208.7 290.7 213.6 291.9 215.7 296.9 226.2 297 226.6 301.1 239.6 301.9 242.6 304.5 252.6 306.9 261.5 308 265.5 311.9 276.2 312.8 278.5 316.9 288 318.8 291.5 321.9 296.6 326.9 302.5 329.1 304.5 331.9 306.5 336.9 309.3 341.9 311.2 346.9 312.1 351.9 312.8 356.9 313.7 361.9 315.1 366.9 317.3 367.2 317.4 371.9 320.3 376.9 324 381.9 328.1 384.4 330.4 386.9 332.9 391.9 338.2 396.6 343.4 396.9 343.8 401.9 350.1 406.6 356.4 406.9 356.8 411.9 364.7 414.7 369.4 416.9 374.2 420.4 382.3 421.9 387.5 424.1 395.3 426.8 408.3 426.9 409.5 428 421.3 427.8 434.3 426.9 443.2 426.4 447.2 423.5 460.2 421.9 465.4 419.1 473.2 416.9 479.8 414.7 486.2 411.9 497.3 411.5 499.2 409.6 512.1 408.3 525.1 408.3 538.1 409.6 551.1 411.6 564.1 411.9 566 413.6 577 415.2 590 416.1 603 416.9 616 416.9 616.8 417.8 629 419.2 641.9 421 654.9 421.9 662.2 422.6 667.9 424.6 680.9 426.9 691.2 427.5 693.9 431.1 706.8 431.9 709.7 434.6 719.8 436.9 727.6 438.4 732.8 441.9 744.1 442.4 745.8 445.9 758.8 446.9 763 449.1 771.7 451.9 781.3 453.1 784.7 456.9 794.6 458.5 797.7 461.9 803.7 466.8 810.7 466.9 810.8 469.8 813.8 469.9 813.8 471.9 813.8 473.6 813.8 476.9 813.8 478.3 813.8 481.9 813.8 483.2 813.8 487 813.8 488.4 813.8 492 813.8 495 813.8 497 813.8 498 813.8 499.6 810.7 502 806.3 505.4 797.7 507 794.1 510.3 784.7 512 780.6 515.2 771.7 517 767.4 520.2 758.8 522 754.3 525.3 745.8 527 741.9 530.8 732.8 532 730 536.3 719.8 537 718.5 542 709.4 543.8 706.8 547 703 552 698.9 557 696.1 562 694.1 562.6 693.9 567 692.4 572 690.6 577 688.8 582 687.1 587 685.2 592 682.9 596 680.9 597 680.4 602 677.9 607 675.7 612 673.7 617 671.8 622 670.1 627 668.4 628.3 667.9 632 666.7 637 664.4 642 661.4 647 657.8 650.8 654.9 652 654 657 650.6 662 647.5 667 644.6 672 642 672.2 641.9 677 640.3 682 639.5 687 639.5 692 640.6 696 641.9 697 642.3 702 644.1 707 645.8 712 647.6 717 649.3 722 650.5 727 651.6 732 652.3 737 652.5 742 652.2 747 651.5 752 650.6 757 649.8 762 649 767 648.3 772 647.4 777 646.6 778.5 646.3 778.5 643.1 778.5 641.9 778.5 632.7 778.5 629 778.5 619.8 778.5 616 778.5 606.8 778.5 603 778.5 593.8 778.5 590 778.5 580.8 778.5 577 778.5 567.9 778.5 564.1 778.5 554.9 778.5 551.1 778.5 541.9 778.5 538.1 778.5 528.9 778.5 525.1 778.5 515.9 778.5 512.1 778.5 503 778.5 499.2 778.5 490 778.5 486.2 778.5 477 778.5 473.2 778.5 464 778.5 460.2 778.5 451 778.5 447.2 778.5 438.1 778.5 434.3 778.5 425.1 778.5 421.3 778.5 412.1 778.5 408.3 778.5 399.1 778.5 395.3 778.5 386.1 778.5 382.3 778.5 373.2 778.5 369.4 778.5 360.2 778.5 356.4 778.5 347.2 778.5 343.4 778.5 337 778.5 333.3 778.5 330.4 778.5 323.9 777.5 330.4 777 334.4 776 343.4 774.7 356.4 773.4 369.4 772 380.1 771.8 382.3 769.6 395.3 767 406.3 766.6 408.3 763.1 421.3 762 425.2 759.6 434.3 757 446.2 756.8 447.2 755 460.2 754.1 473.2 754 486.2 754.9 499.2 757 512.1 757 512.6 759.9 525.1 762 533.4 763.6 538.1 765.6 551.1 762 560.6 760.4 564.1 757 567.2 752 571.1 747 574 742 575.8 737 576.5 732 575.9 727 573.9 722 571.3 717 568.8 712 566.1 707.4 564.1 707 563.9 702 562.2 697 561.3 692 561.3 687 562 682 563.8 681.4 564.1 677 566.1 672 569.2 667 573 662.1 577 662 577.1 657 581.2 652 585.6 647.1 590 647 590.1 642 594.5 637 598.8 632 603 631.9 603 627 606.6 622 609.7 617 612.7 612 615.7 611.5 616 607 618.5 602 621 597 623.5 592 626.1 587 628.7 586.6 629 582 631.2 577 633.1 572 634.6 567 635.8 562 636.7 557 637.7 552 638.9 547 640.8 545.1 641.9 542 643.9 537 648.6 532.4 654.9 532 655.6 527 664.4 525.3 667.9 522 674.3 518.7 680.9 517 684.1 512 693.3 511.6 693.9 507 701.3 503.1 706.8 502 708.5 497 713.9 492 717.4 487 718.7 481.9 717 476.9 712.2 473.8 706.8 471.9 702.9 468.6 693.9 466.9 689 464.6 680.9 461.9 669.7 461.6 667.9 459.5 654.9 458.3 641.9 458 629 458.8 616 460.8 603 461.9 596.8 463.5 590 466.6 577 466.9 575.7 469.7 564.1 471.9 552.4 472.2 551.1 473.5 538.1 473.7 525.1 472.9 512.1 471.9 505 471.2 499.2 469.2 486.2 467.2 473.2 466.9 471.7 465 460.2 463.1 447.2 461.9 435.9 461.8 434.3 461 421.3 460.5 408.3 459.8 395.3 459.1 382.3 458.4 369.4 457.5 356.4 456.9 349.7 456.3 343.4 454.1 330.4 451.9 323.5 449.1 317.4 446.9 314.1 441.9 308.5 437.2 304.5 436.9 304.3 431.9 300.6 426.9 296.9 421.9 293.3 419.5 291.5 416.9 289.6 411.9 285.6 406.9 281.4 403.8 278.5 401.9 276.8 396.9 272.1 391.9 267.4 389.9 265.5 386.9 262.5 381.9 257.7 376.9 253.3 375.9 252.6 371.9 249.2 366.9 245.6 361.9 242.5 357.5 239.6 356.9 239.2 351.9 235.3 346.9 230.6 343.7 226.6 341.9 224.1 336.9 214.9 336.3 213.6 331.9 203.4 330.8 200.6 326.9 192.3 324.7 187.7 321.9 183.2 316.9 176 315.9 174.7 311.9 169.8 306.9 164.4 303.8 161.7 301.9 160.1 296.9 156.5 291.9 153.6 286.9 151.1 281.9 148.9 281.3 148.7 276.9 147.1 271.9 145.6 266.9 144.4 261.9 143.7 256.9 143.3 251.9 143.4 246.9 144 241.9 144.9 236.9 146.1 231.9 147.5 228.8 148.7 226.9 149.5 221.9 152.3 216.9 155.9 211.9 160.4 210.7 161.7 206.9 166.2 201.9 172.7 200.5 174.7 196.9 181 193.2 187.7 191.9 190.8 187.6 200.6 186.9 202.7 183.2 213.6 181.8 218.2 179.4 226.6 176.8 235.6 175.7 239.6 171.8 250.8 171.2 252.6 166.8 263 165.9 265.5 161.8 275.1 160.5 278.5 156.8 287.1 155.1 291.5 151.8 300 150.3 304.5 146.8 314.7 146 317.4 141.8 329 141.3 330.4 136.8 341.7 136.2 343.4 131.8 353.2 130.4 356.4 126.8 364.3 124.5 369.4 121.8 375.8 119 382.3 116.8 387.9 114.1 395.3 111.8 402.4 110 408.3 106.8 421.1 106.8 421.3 104.7 434.3 103.8 447.2 104 460.2 105.1 473.2 106.8 486.2 106.8 486.2 108.7 499.2 110.7 512.1 111.8 519.1 112.8 525.1 115 538.1 116.8 547.8 117.5 551.1 120.5 564.1 121.8 569.1 124.2 577 126.8 584.6 129 590 131.8 596.7 134.9 603 136.8 607 141.8 616 141.8 616.1 146.8 625.2 149.2 629 151.8 634 156.4 641.9 156.8 642.8 161.8 652.5 163.1 654.9 166.8 663.4 168.7 667.9 171.8 677.2 173 680.9 176.7 693.9 176.8 694.5 179.9 706.8 181.8 716.1 182.7 719.8 185.3 732.8 186.9 740.6 187.9 745.8 190.2 758.8 191.5 771.7 191.4 784.7 189.2 797.7 186.9 805 184.6 810.7 182.8 813.8"/>
          <polygon class="cls-10" points="82.6 813.8 84.4 813.8 86.8 813.8 88 813.8 91.8 813.8 93 813.8 96.8 813.8 98 813.8 101.8 813.8 103 813.8 106.8 813.8 108 813.8 111.8 813.8 113 813.8 116.8 813.8 118 813.8 121.8 813.8 123 813.8 126.8 813.8 128 813.8 131.8 813.8 133 813.8 136.8 813.8 138 813.8 141.8 813.8 143 813.8 146.8 813.8 148 813.8 151.8 813.8 153 813.8 156.8 813.8 158 813.8 161.8 813.8 163 813.8 166.8 813.8 168 813.8 171.8 813.8 172.9 813.8 176.7 813.8 176.8 813.8 180 813.8 181.8 813.8 182.8 813.8 184.6 810.7 186.9 805 189.2 797.7 191.4 784.7 191.5 771.7 190.2 758.8 187.9 745.8 186.9 740.6 185.3 732.8 182.7 719.8 181.8 716.1 179.9 706.8 176.8 694.5 176.7 693.9 173 680.9 171.8 677.2 168.7 667.9 166.8 663.4 163.1 654.9 161.8 652.5 156.8 642.8 156.4 641.9 151.8 634 149.2 629 146.8 625.2 141.8 616.1 141.8 616 136.8 607 134.9 603 131.8 596.7 129 590 126.8 584.6 124.2 577 121.8 569.1 120.5 564.1 117.5 551.1 116.8 547.8 115 538.1 112.8 525.1 111.8 519.1 110.7 512.1 108.7 499.2 106.8 486.2 106.8 486.2 105.1 473.2 104 460.2 103.8 447.2 104.7 434.3 106.8 421.3 106.8 421.1 110 408.3 111.8 402.4 114.1 395.3 116.8 387.9 119 382.3 121.8 375.8 124.5 369.4 126.8 364.3 130.4 356.4 131.8 353.2 136.2 343.4 136.8 341.7 141.3 330.4 141.8 329 146 317.4 146.8 314.7 150.3 304.5 151.8 300 155.1 291.5 156.8 287.1 160.5 278.5 161.8 275.1 165.9 265.5 166.8 263 171.2 252.6 171.8 250.8 175.7 239.6 176.8 235.6 179.4 226.6 181.8 218.2 183.2 213.6 186.9 202.7 187.6 200.6 191.9 190.8 193.2 187.7 196.9 181 200.5 174.7 201.9 172.7 206.9 166.2 210.7 161.7 211.9 160.4 216.9 155.9 221.9 152.3 226.9 149.5 228.8 148.7 231.9 147.5 236.9 146.1 241.9 144.9 246.9 144 251.9 143.4 256.9 143.3 261.9 143.7 266.9 144.4 271.9 145.6 276.9 147.1 281.3 148.7 281.9 148.9 286.9 151.1 291.9 153.6 296.9 156.5 301.9 160.1 303.8 161.7 306.9 164.4 311.9 169.8 315.9 174.7 316.9 176 321.9 183.2 324.7 187.7 326.9 192.3 330.8 200.6 331.9 203.4 336.3 213.6 336.9 214.9 341.9 224.1 343.7 226.6 346.9 230.6 351.9 235.3 356.9 239.2 357.5 239.6 361.9 242.5 366.9 245.6 371.9 249.2 375.9 252.6 376.9 253.3 381.9 257.7 386.9 262.5 389.9 265.5 391.9 267.4 396.9 272.1 401.9 276.8 403.8 278.5 406.9 281.4 411.9 285.6 416.9 289.6 419.5 291.5 421.9 293.3 426.9 296.9 431.9 300.6 436.9 304.3 437.2 304.5 441.9 308.5 446.9 314.1 449.1 317.4 451.9 323.5 454.1 330.4 456.3 343.4 456.9 349.7 457.5 356.4 458.4 369.4 459.1 382.3 459.8 395.3 460.5 408.3 461 421.3 461.8 434.3 461.9 435.9 463.1 447.2 465 460.2 466.9 471.7 467.2 473.2 469.2 486.2 471.2 499.2 471.9 505 472.9 512.1 473.7 525.1 473.5 538.1 472.2 551.1 471.9 552.4 469.7 564.1 466.9 575.7 466.6 577 463.5 590 461.9 596.8 460.8 603 458.8 616 458 629 458.3 641.9 459.5 654.9 461.6 667.9 461.9 669.7 464.6 680.9 466.9 689 468.6 693.9 471.9 702.9 473.8 706.8 476.9 712.2 481.9 717 487 718.7 492 717.4 497 713.9 502 708.5 503.1 706.8 507 701.3 511.6 693.9 512 693.3 517 684.1 518.7 680.9 522 674.3 525.3 667.9 527 664.4 532 655.6 532.4 654.9 537 648.6 542 643.9 545.1 641.9 547 640.8 552 638.9 557 637.7 562 636.7 567 635.8 572 634.6 577 633.1 582 631.2 586.6 629 587 628.7 592 626.1 597 623.5 602 621 607 618.5 611.5 616 612 615.7 617 612.7 622 609.7 627 606.6 631.9 603 632 603 637 598.8 642 594.5 647 590.1 647.1 590 652 585.6 657 581.2 662 577.1 662.1 577 667 573 672 569.2 677 566.1 681.4 564.1 682 563.8 687 562 692 561.3 697 561.3 702 562.2 707 563.9 707.4 564.1 712 566.1 717 568.8 722 571.3 727 573.9 732 575.9 737 576.5 742 575.8 747 574 752 571.1 757 567.2 760.4 564.1 762 560.6 765.6 551.1 763.6 538.1 762 533.4 759.9 525.1 757 512.6 757 512.1 754.9 499.2 754 486.2 754.1 473.2 755 460.2 756.8 447.2 757 446.2 759.6 434.3 762 425.2 763.1 421.3 766.6 408.3 767 406.3 769.6 395.3 771.8 382.3 772 380.1 773.4 369.4 774.7 356.4 776 343.4 777 334.4 777.5 330.4 778.5 323.9 778.5 317.4 778.5 312.2 778.5 304.5 778.5 295.5 778.5 291.5 778.5 282.3 778.5 278.5 778.5 269.3 778.5 265.5 778.5 256.3 778.5 252.6 778.5 243.4 778.5 239.6 778.5 230.4 778.5 226.6 778.5 217.4 778.5 213.6 778.5 204.4 778.5 200.6 778.5 191.4 778.5 187.7 778.5 184.8 778.5 180.3 777 183.7 775.3 187.7 772 195.6 770 200.6 767 208 764.8 213.6 762 220.5 759.6 226.6 757 233.3 754.6 239.6 752 246.9 750.1 252.6 747 262 745.9 265.5 742.1 278.5 742 278.9 738.8 291.5 737 299.5 735.8 304.5 732.6 317.4 732 319.4 728.4 330.4 727 334.2 723.1 343.4 722 345.7 717 354.3 715.4 356.4 712 360.5 707 365.2 702 369 701.5 369.4 697 372.6 692 376.3 687 380.4 685.1 382.3 682 386 677 394 676.4 395.3 672 406.2 671.3 408.3 668 421.3 667 426.8 665.7 434.3 663.7 447.2 662 457 661.4 460.2 658.2 473.2 657 476.8 653.6 486.2 652 489.4 647 499 646.9 499.2 642 506.6 638.2 512.1 637 513.7 632 519.9 627.8 525.1 627 526 622 531.2 617 536.2 615 538.1 612 540.6 607 544.5 602 547.9 597 550.4 594.8 551.1 592 551.8 587 552.4 582 552.5 577 552.4 572 552 567.9 551.1 567 550.9 562 548.3 557 544.9 552 541.8 547 538.8 546.1 538.1 542 533.9 537 525.5 536.8 525.1 532.7 512.1 532 509.1 529.8 499.2 527.7 486.2 527 480.7 526 473.2 522.4 460.2 522 459.5 517 450.7 514.9 447.2 512 442.7 507 435 506.5 434.3 502 423.2 501.3 421.3 499.3 408.3 498.1 395.3 497 385.4 496.6 382.3 495.5 369.4 495 356.4 495.6 343.4 496.6 330.4 497 319.4 497 317.4 497 316.8 495.7 304.5 492.8 291.5 492 288.3 489.4 278.5 487 269.3 485.9 265.5 482 252.6 481.9 252.4 476.9 240.7 476.3 239.6 471.9 232.6 467.2 226.6 466.9 226.3 461.9 221.8 456.9 218.2 451.9 215.4 447.5 213.6 446.9 213.4 441.9 211.8 436.9 210.2 431.9 208.4 426.9 206.2 421.9 203.2 418.8 200.6 416.9 199 411.9 193.8 406.9 187.9 406.7 187.7 401.9 181.9 396.9 176.1 395.5 174.7 391.9 171 386.9 166.4 381.9 162.2 381.2 161.7 376.9 158.6 371.9 155.4 366.9 152.2 361.9 148.7 361.9 148.7 356.9 145 351.9 140.7 346.9 135.8 346.9 135.7 341.9 130.6 336.9 125.3 334.5 122.8 331.9 120.2 326.9 115.5 321.9 111.4 319.6 109.8 316.9 108 311.9 105.2 306.9 103.1 301.9 101.6 296.9 100.6 291.9 99.9 286.9 99.5 281.9 99.5 276.9 99.8 271.9 100.3 266.9 100.9 261.9 101.6 256.9 102.4 251.9 103.4 246.9 104.6 241.9 105.9 236.9 107.4 231.9 109.1 230.1 109.8 226.9 111.1 221.9 113.5 216.9 116.4 211.9 119.9 208.1 122.8 206.9 123.8 201.9 128.3 196.9 133.4 194.8 135.7 191.9 139.5 186.9 146.6 185.5 148.7 181.8 154.6 177.4 161.7 176.8 162.7 171.8 171.3 169.9 174.7 166.8 180.5 163.2 187.7 161.8 191.1 158 200.6 156.8 204.3 153.9 213.6 151.8 220.8 150.2 226.6 146.8 238.2 146.5 239.6 142.6 252.6 141.8 255.1 138.8 265.5 136.8 272.1 135 278.5 131.8 289.5 131.3 291.5 128.1 304.5 126.8 309.7 124.9 317.4 121.8 327.7 121 330.4 116.8 342.2 116.4 343.4 111.8 354.7 111.1 356.4 106.8 365.9 105.2 369.4 101.8 376.7 99.4 382.3 96.8 389.4 94.9 395.3 91.8 406.7 91.5 408.3 89.5 421.3 88.7 434.3 88.6 447.2 88.9 460.2 89.4 473.2 90.1 486.2 91.2 499.2 91.8 505 92.6 512.1 94.5 525.1 96.2 538.1 96.8 544.1 97.5 551.1 98.5 564.1 100.1 577 101.8 586.8 102.4 590 104.9 603 106.8 612.5 107.6 616 110.7 629 111.8 633.6 114.1 641.9 116.8 652.3 117.6 654.9 121 667.9 121.8 671.8 123.8 680.9 125.9 693.9 126.8 705.9 126.9 706.8 126.8 719.8 126.8 720.1 125.6 732.8 122.2 745.8 121.8 746.7 116.8 754 111.8 758 110.8 758.8 106.8 761.2 101.8 766.2 98.7 771.7 96.8 774.8 93.2 784.7 91.8 787.7 88.3 797.7 86.8 801.6 83.7 810.7 82.6 813.8"/>
          <polygon class="cls-14" points="1.1 810.7 1.1 813.8 1.8 813.8 3 813.8 6.8 813.8 8 813.8 11.8 813.8 13 813.8 16.8 813.8 18 813.8 21.8 813.8 23 813.8 26.8 813.8 28 813.8 31.8 813.8 33 813.8 36.8 813.8 38 813.8 41.8 813.8 43 813.8 46.8 813.8 48 813.8 51.8 813.8 53 813.8 56.8 813.8 58 813.8 61.8 813.8 63 813.8 66.8 813.8 68 813.8 71.8 813.8 73 813.8 76.8 813.8 77.4 813.8 81.2 813.8 81.8 813.8 82.6 813.8 83.7 810.7 86.8 801.6 88.3 797.7 91.8 787.7 93.2 784.7 96.8 774.8 98.7 771.7 101.8 766.2 106.8 761.2 110.8 758.8 111.8 758 116.8 754 121.8 746.7 122.2 745.8 125.6 732.8 126.8 720.1 126.8 719.8 126.9 706.8 126.8 705.9 125.9 693.9 123.8 680.9 121.8 671.8 121 667.9 117.6 654.9 116.8 652.3 114.1 641.9 111.8 633.6 110.7 629 107.6 616 106.8 612.5 104.9 603 102.4 590 101.8 586.8 100.1 577 98.5 564.1 97.5 551.1 96.8 544.1 96.2 538.1 94.5 525.1 92.6 512.1 91.8 505 91.2 499.2 90.1 486.2 89.4 473.2 88.9 460.2 88.6 447.2 88.7 434.3 89.5 421.3 91.5 408.3 91.8 406.7 94.9 395.3 96.8 389.4 99.4 382.3 101.8 376.7 105.2 369.4 106.8 365.9 111.1 356.4 111.8 354.7 116.4 343.4 116.8 342.2 121 330.4 121.8 327.7 124.9 317.4 126.8 309.7 128.1 304.5 131.3 291.5 131.8 289.5 135 278.5 136.8 272.1 138.8 265.5 141.8 255.1 142.6 252.6 146.5 239.6 146.8 238.2 150.2 226.6 151.8 220.8 153.9 213.6 156.8 204.3 158 200.6 161.8 191.1 163.2 187.7 166.8 180.5 169.9 174.7 171.8 171.3 176.8 162.7 177.4 161.7 181.8 154.6 185.5 148.7 186.9 146.6 191.9 139.5 194.8 135.7 196.9 133.4 201.9 128.3 206.9 123.8 208.1 122.8 211.9 119.9 216.9 116.4 221.9 113.5 226.9 111.1 230.1 109.8 231.9 109.1 236.9 107.4 241.9 105.9 246.9 104.6 251.9 103.4 256.9 102.4 261.9 101.6 266.9 100.9 271.9 100.3 276.9 99.8 281.9 99.5 286.9 99.5 291.9 99.9 296.9 100.6 301.9 101.6 306.9 103.1 311.9 105.2 316.9 108 319.6 109.8 321.9 111.4 326.9 115.5 331.9 120.2 334.5 122.8 336.9 125.3 341.9 130.6 346.9 135.7 346.9 135.8 351.9 140.7 356.9 145 361.9 148.7 361.9 148.7 366.9 152.2 371.9 155.4 376.9 158.6 381.2 161.7 381.9 162.2 386.9 166.4 391.9 171 395.5 174.7 396.9 176.1 401.9 181.9 406.7 187.7 406.9 187.9 411.9 193.8 416.9 199 418.8 200.6 421.9 203.2 426.9 206.2 431.9 208.4 436.9 210.2 441.9 211.8 446.9 213.4 447.5 213.6 451.9 215.4 456.9 218.2 461.9 221.8 466.9 226.3 467.2 226.6 471.9 232.6 476.3 239.6 476.9 240.7 481.9 252.4 482 252.6 485.9 265.5 487 269.3 489.4 278.5 492 288.3 492.8 291.5 495.7 304.5 497 316.8 497 317.4 497 319.4 496.6 330.4 495.6 343.4 495 356.4 495.5 369.4 496.6 382.3 497 385.4 498.1 395.3 499.3 408.3 501.3 421.3 502 423.2 506.5 434.3 507 435 512 442.7 514.9 447.2 517 450.7 522 459.5 522.4 460.2 526 473.2 527 480.7 527.7 486.2 529.8 499.2 532 509.1 532.7 512.1 536.8 525.1 537 525.5 542 533.9 546.1 538.1 547 538.8 552 541.8 557 544.9 562 548.3 567 550.9 567.9 551.1 572 552 577 552.4 582 552.5 587 552.4 592 551.8 594.8 551.1 597 550.4 602 547.9 607 544.5 612 540.6 615 538.1 617 536.2 622 531.2 627 526 627.8 525.1 632 519.9 637 513.7 638.2 512.1 642 506.6 646.9 499.2 647 499 652 489.4 653.6 486.2 657 476.8 658.2 473.2 661.4 460.2 662 457 663.7 447.2 665.7 434.3 667 426.8 668 421.3 671.3 408.3 672 406.2 676.4 395.3 677 394 682 386 685.1 382.3 687 380.4 692 376.3 697 372.6 701.5 369.4 702 369 707 365.2 712 360.5 715.4 356.4 717 354.3 722 345.7 723.1 343.4 727 334.2 728.4 330.4 732 319.4 732.6 317.4 735.8 304.5 737 299.5 738.8 291.5 742 278.9 742.1 278.5 745.9 265.5 747 262 750.1 252.6 752 246.9 754.6 239.6 757 233.3 759.6 226.6 762 220.5 764.8 213.6 767 208 770 200.6 772 195.6 775.3 187.7 777 183.7 778.5 180.3 778.5 174.7 778.5 166.5 778.5 161.7 778.5 152.5 778.5 148.7 778.5 139.5 778.5 135.7 778.5 126.5 778.5 122.8 778.5 113.6 778.5 109.8 778.5 100.6 778.5 96.8 778.5 87.6 778.5 83.8 778.5 83.4 778.5 80 777 83.2 776.8 83.8 772 93.5 770.5 96.8 767 103.5 763.9 109.8 762 113.3 757.1 122.8 757 123 752 132.5 750.3 135.7 747 142.1 743.6 148.7 742 151.7 737 161.3 736.9 161.7 732 170.8 729.9 174.7 727 180 722.8 187.7 722 189.1 717 198.5 715.8 200.6 712 207.9 708.9 213.6 707 217.4 702 226.3 701.8 226.6 697 234.6 693.5 239.6 692 241.5 687 247.1 682 251.7 680.8 252.6 677 255.2 672 258.2 667 260.8 662 263.1 657 265.1 655.5 265.5 652 266.6 647 267.6 642 268 637 267.7 632 266.7 628.2 265.5 627 265.2 622 263.3 617 261.1 612 258.3 607 254.9 604.2 252.6 602 250.7 597 245.7 592 239.9 591.7 239.6 587 233.3 582.5 226.6 582 225.8 577 217.2 575 213.6 572 207.7 568.5 200.6 567 197.5 562.1 187.7 562 187.3 557 178.1 555 174.7 552 170 547 163.1 545.9 161.7 542 157.4 537 152.9 532 150.1 527 148.7 522 148.9 517 149.2 512 149.1 510.1 148.7 507 148.2 502 146.8 497 144.9 492 142.5 487 139.6 481.9 136.4 481.1 135.7 476.9 132.7 471.9 129 466.9 125.5 463 122.8 461.9 122 456.9 118.5 451.9 115.2 446.9 112 443.2 109.8 441.9 109 436.9 105.8 431.9 102.4 426.9 98.8 424.4 96.8 421.9 94.9 416.9 91.2 411.9 87.8 406.9 84.7 405.4 83.8 401.9 81.9 396.9 79.6 391.9 77.9 386.9 76.6 381.9 75.8 376.9 75.1 371.9 74.5 366.9 73.8 361.9 72.8 356.9 71.3 355.8 70.8 351.9 69.2 346.9 66.7 341.9 63.8 336.9 61.1 331.9 58.4 330.9 57.9 326.9 55.7 321.9 53.2 316.9 51 311.9 49.1 306.9 47.6 301.9 46.6 296.9 46 291.9 45.8 286.9 46.2 281.9 47.1 276.9 48.6 271.9 50.6 266.9 53.1 261.9 55.8 258.3 57.9 256.9 58.6 251.9 61.2 246.9 63.9 241.9 66.5 236.9 69.2 233.9 70.8 231.9 71.8 226.9 74.3 221.9 76.9 216.9 79.9 211.9 83.3 211.2 83.8 206.9 87.1 201.9 91.3 196.9 96 196.1 96.8 191.9 101.1 186.9 106.6 184.2 109.8 181.8 112.5 176.8 118.8 173.8 122.8 171.8 125.5 166.8 132.6 164.7 135.7 161.8 140.2 156.8 148.2 156.6 148.7 151.8 156.8 149.1 161.7 146.8 166.1 142.7 174.7 141.8 176.8 137.6 187.7 136.8 190.1 133.6 200.6 131.8 207.1 130.1 213.6 126.8 225.8 126.6 226.6 123 239.6 121.8 243.7 119.5 252.6 116.8 263.3 116.3 265.5 113.3 278.5 111.8 284.8 110.3 291.5 107.4 304.5 106.8 306.6 103.9 317.4 101.8 324 99.8 330.4 96.8 338.2 95 343.4 91.8 351.4 90.1 356.4 86.8 366.3 85.9 369.4 82.2 382.3 81.8 384 79.4 395.3 77.5 408.3 76.8 416.1 76.4 421.3 76.1 434.3 76.1 447.2 75.6 460.2 74.2 473.2 72 486.2 71.8 487.5 70 499.2 67 512.1 66.8 512.7 62.7 525.1 61.8 527.4 56.8 536.7 55.9 538.1 51.8 543.7 46.8 550.5 46.4 551.1 41.8 561.5 40.9 564.1 41.4 577 41.8 578.5 46 590 46.8 593 49.9 603 50.8 616 51.2 629 51.1 641.9 50.7 654.9 50 667.9 49.6 680.9 49.4 693.9 49.4 706.8 49.3 719.8 48.9 732.8 47.8 745.8 46.8 752.6 45.7 758.8 42.1 771.7 41.8 772.5 36.8 780.2 32.1 784.7 31.8 785 26.8 787.5 21.8 788.8 16.8 789.5 11.8 789.6 6.8 788.7 1.8 785.7 1.1 785 1.1 788 1.1 795.9 1.1 797.7 1.1 808.9 1.1 810.7"/>
          <polygon class="cls-6" points="436.9 31.9 441.9 31.9 446.9 31.9 451.9 31.9 456.9 31.9 461.9 31.9 466.9 31.9 471.9 31.9 476.9 31.9 481.9 31.9 487 31.9 492 31.9 497 31.9 502 31.9 507 31.9 512 31.9 517 31.9 522 31.9 527 31.9 532 31.9 537 31.9 542 31.9 547 31.9 552 31.9 557 31.9 562 31.9 567 31.9 571.9 31.9 572 32 577 41.1 579 44.9 582 51 585.3 57.9 587 61.2 591.7 70.8 592 71.4 597 82.5 597.6 83.8 602 93.8 603.4 96.8 607 104.6 609.6 109.8 612 114.3 617 122.8 617 122.8 622 129.7 627 135.3 627.5 135.7 632 139.4 637 142.4 642 144.4 647 145.4 652 145.9 657 145.5 662 144.6 667 143.1 672 140.7 677 137.7 679.6 135.7 682 133.8 687 129 692 123.6 692.7 122.8 697 117.2 702 110.5 702.5 109.8 707 102.8 710.8 96.8 712 94.6 717 85.4 717.9 83.8 722 74.9 723.9 70.8 727 62.6 728.8 57.9 732 46.3 732.4 44.9 735 31.9 737 31.9 742 31.9 747 31.9 752 31.9 757 31.9 762 31.9 767 31.9 772 31.9 777 31.9 778.5 31.9 778.5 35.7 778.5 44.9 778.5 48.7 778.5 57.9 778.5 61.6 778.5 70.8 778.5 71.2 778.5 80 777 83.2 776.8 83.8 772 93.5 770.5 96.8 767 103.5 763.9 109.8 762 113.3 757.1 122.8 757 123 752 132.5 750.3 135.7 747 142.1 743.6 148.7 742 151.7 737 161.3 736.9 161.7 732 170.8 729.9 174.7 727 180 722.8 187.7 722 189.1 717 198.5 715.8 200.6 712 207.9 708.9 213.6 707 217.4 702 226.3 701.8 226.6 697 234.6 693.5 239.6 692 241.5 687 247.1 682 251.7 680.8 252.6 677 255.2 672 258.2 667 260.8 662 263.1 657 265.1 655.5 265.5 652 266.6 647 267.6 642 268 637 267.7 632 266.7 628.2 265.5 627 265.2 622 263.3 617 261.1 612 258.3 607 254.9 604.2 252.6 602 250.7 597 245.7 592 239.9 591.7 239.6 587 233.3 582.5 226.6 582 225.8 577 217.2 575 213.6 572 207.7 568.5 200.6 567 197.5 562.1 187.7 562 187.3 557 178.1 555 174.7 552 170 547 163.1 545.9 161.7 542 157.4 537 152.9 532 150.1 527 148.7 522 148.9 517 149.2 512 149.1 510.1 148.7 507 148.2 502 146.8 497 144.9 492 142.5 487 139.6 481.9 136.4 481.1 135.7 476.9 132.7 471.9 129 466.9 125.5 463 122.8 461.9 122 456.9 118.5 451.9 115.2 446.9 112 443.2 109.8 441.9 109 436.9 105.8 431.9 102.4 426.9 98.8 424.4 96.8 421.9 94.9 416.9 91.2 411.9 87.8 406.9 84.7 405.4 83.8 401.9 81.9 396.9 79.6 391.9 77.9 386.9 76.6 381.9 75.8 376.9 75.1 371.9 74.5 366.9 73.8 361.9 72.8 356.9 71.3 355.8 70.8 351.9 69.2 346.9 66.7 341.9 63.8 336.9 61.1 331.9 58.4 330.9 57.9 326.9 55.7 321.9 53.2 316.9 51 311.9 49.1 306.9 47.6 301.9 46.6 296.9 46 291.9 45.8 286.9 46.2 281.9 47.1 276.9 48.6 271.9 50.6 266.9 53.1 261.9 55.8 258.3 57.9 256.9 58.6 251.9 61.2 246.9 63.9 241.9 66.5 236.9 69.2 233.9 70.8 231.9 71.8 226.9 74.3 221.9 76.9 216.9 79.9 211.9 83.3 211.2 83.8 206.9 87.1 201.9 91.3 196.9 96 196.1 96.8 191.9 101.1 186.9 106.6 184.2 109.8 181.8 112.5 176.8 118.8 173.8 122.8 171.8 125.5 166.8 132.6 164.7 135.7 161.8 140.2 156.8 148.2 156.6 148.7 151.8 156.8 149.1 161.7 146.8 166.1 142.7 174.7 141.8 176.8 137.6 187.7 136.8 190.1 133.6 200.6 131.8 207.1 130.1 213.6 126.8 225.8 126.6 226.6 123 239.6 121.8 243.7 119.5 252.6 116.8 263.3 116.3 265.5 113.3 278.5 111.8 284.8 110.3 291.5 107.4 304.5 106.8 306.6 103.9 317.4 101.8 324 99.8 330.4 96.8 338.2 95 343.4 91.8 351.4 90.1 356.4 86.8 366.3 85.9 369.4 82.2 382.3 81.8 384 79.4 395.3 77.5 408.3 76.8 416.1 76.4 421.3 76.1 434.3 76.1 447.2 75.6 460.2 74.2 473.2 72 486.2 71.8 487.5 70 499.2 67 512.1 66.8 512.7 62.7 525.1 61.8 527.4 56.8 536.7 55.9 538.1 51.8 543.7 46.8 550.5 46.4 551.1 41.8 561.5 40.9 564.1 41.4 577 41.8 578.5 46 590 46.8 593 49.9 603 50.8 616 51.2 629 51.1 641.9 50.7 654.9 50 667.9 49.6 680.9 49.4 693.9 49.4 706.8 49.3 719.8 48.9 732.8 47.8 745.8 46.8 752.6 45.7 758.8 42.1 771.7 41.8 772.5 36.8 780.2 32.1 784.7 31.8 785 26.8 787.5 21.8 788.8 16.8 789.5 11.8 789.6 6.8 788.7 1.8 785.7 1.1 785 1.1 784.7 1.1 781.5 1.1 771.7 1.1 770 1.1 758.8 1.1 757 1.1 745.8 1.1 744 1.1 732.8 1.1 731 1.1 719.8 1.1 718 1.1 706.8 1.1 705.1 1.1 693.9 1.1 692.1 1.1 680.9 1.1 679.1 1.1 667.9 1.1 666.1 1.1 654.9 1.1 653.1 1.1 641.9 1.1 640.2 1.1 629 1.1 627.2 1.1 616 1.1 614.2 1.1 614.1 1.1 603 1.1 600.4 1.8 600 6.8 595.4 9.8 590 11.8 580.1 12.1 577 13.3 564.1 16.6 551.1 16.8 550.7 21.8 538.7 22 538.1 26.8 527.4 27.9 525.1 31.8 517.2 34.7 512.1 36.8 508.5 41.8 500.4 42.5 499.2 46.8 492.2 49.9 486.2 51.8 483.3 56.8 474 57.1 473.2 61.6 460.2 61.8 459.2 63.3 447.2 63.5 434.3 63.5 421.3 64 408.3 65.1 395.3 66.8 383 66.9 382.3 69.5 369.4 71.8 359.6 72.6 356.4 76.2 343.4 76.8 341.1 79.9 330.4 81.8 323.9 83.7 317.4 86.8 306.4 87.3 304.5 90.5 291.5 91.8 285.5 93.4 278.5 96.1 265.5 96.8 262 98.8 252.6 101.8 239.8 101.9 239.6 105.3 226.6 106.8 221.2 108.9 213.6 111.8 202.8 112.4 200.6 116.2 187.7 116.8 185.7 120.6 174.7 121.8 171.2 125.5 161.7 126.8 158.4 131.2 148.7 131.8 147.3 136.8 137.5 137.8 135.7 141.8 128.5 145.2 122.8 146.8 120.2 151.8 112.6 153.8 109.8 156.8 105.5 161.8 98.8 163.4 96.8 166.8 92.2 171.8 85.9 173.5 83.8 176.8 79.6 181.8 73.6 184.3 70.8 186.9 67.8 191.9 62.5 196.7 57.9 196.9 57.7 201.9 52.9 206.9 48.3 210.8 44.9 211.9 43.9 216.9 39.6 221.9 35.3 226 31.9 226.9 31.9 231.9 31.9 236.9 31.9 241.9 31.9 246.9 31.9 251.9 31.9 256.9 31.9 261.9 31.9 266.9 31.9 271.9 31.9 276.9 31.9 281.9 31.9 286.9 31.9 291.9 31.9 296.9 31.9 365.6 .5 436.9 31.9"/>
          <path class="cls-5" d="M1.1,590v10.4l.7-.4,5-4.6,3-5.4,2-9.9.3-3,1.2-13,3.3-13v-.4c.1,0,5.1-12,5.1-12l.3-.6,4.7-10.7,1.1-2.3,3.9-7.9,2.9-5,2.1-3.7,5-8.1.7-1.3,4.3-7,3.1-6,1.9-2.9,5-9.3.3-.8,4.5-13,.2-1.1,1.5-11.9.2-13v-13s.5-13,.5-13l1.1-13,1.7-12.3v-.7c0,0,2.7-13,2.7-13l2.3-9.8.8-3.2,3.6-13,.7-2.3,3.1-10.6,1.9-6.5,1.9-6.5,3.1-11.1.5-1.9,3.2-13,1.3-6,1.5-7,2.7-13,.7-3.5,2-9.5,3-12.8v-.2s3.5-13,3.5-13l1.5-5.4,2.1-7.6,2.9-10.8.6-2.2,3.8-13,.6-1.9,3.7-11,1.3-3.5,3.6-9.5,1.4-3.2,4.3-9.7.7-1.4,5-9.8.9-1.7,4.1-7.2,3.4-5.8,1.6-2.6,5-7.6,2-2.8,3-4.3,5-6.7,1.5-2,3.5-4.6,5-6.3,1.7-2.1,3.3-4.2,5-6,2.4-2.7,2.6-3,5-5.3,4.8-4.6.2-.2,5-4.8,5-4.5,4-3.4,1-1,5-4.4,5-4.3,4.1-3.4h-47.2l-2,2.3-5,6.3-3.1,4.4-1.9,2.6-5,7.4-1.9,2.9-3.1,4.5-5,7.5-.6,1-4.4,6.2-4.6,6.8-.4.5-5,7.3-3.4,5.2-1.6,2.6-5,8.4-1.1,2-3.9,7.5-2.7,5.5-2.3,5-3.6,8-1.4,3.4-4,9.6-1,2.6-3.8,10.3-1.2,3.4-3.3,9.5-1.7,5.7-2.3,7.3-2.7,9.9-.9,3-3.6,13-.6,2.1-3,10.9-2,8.1-1.2,4.9-2.8,13-1,5.2-1.6,7.8-2.7,13-.6,2.8-2.5,10.2-2.5,8.8-1.2,4.2-3.8,12.8v.2c0,0-3.5,13-3.5,13l-1.5,6.5-1.4,6.5-2.4,13-1.2,8.4-.7,4.6-1.6,13-.9,13-.4,13v13s.2,13,.2,13l-1.2,13-.4,1.2-5,10.2-1.1,1.6-3.9,3.9-5,4.5-5,4.3-.3.3-4.7,5.1-5,6.2-1.2,1.6-3.8,7.3-2.7,5.7-2.3,5.6-3.3,7.4-1.7,3.7-.7,1.3v19.1h0v53.8ZM627.5,135.7l4.5,3.7,5,3,5,2,5,1,5,.4,5-.3,5-.9,5-1.6,5-2.3,5-3,2.6-2,2.4-2,5-4.8,5-5.4.7-.8,4.3-5.5,5-6.8.5-.7,4.5-6.9,3.7-6,1.3-2.2,5-9.2.8-1.6,4.2-8.9,1.9-4.1,3.1-8.3,1.7-4.7,3.3-11.5.4-1.5,2.5-13h-163.1,0c0,.1,5,9.2,5,9.2l2,3.8,3,6.1,3.4,6.9,1.6,3.3,4.7,9.7.3.6,5,11,.6,1.4,4.4,9.9,1.4,3,3.6,7.8,2.7,5.2,2.3,4.6,5,8.4h0c0,0,5,6.9,5,6.9l5,5.6.5.4Z"/>
          <polygon class="cls-12" points="1.1 512.1 1.1 514 1.1 517.1 1.8 515.8 3.5 512.1 6.8 504.7 9.1 499.2 11.8 493.5 15.6 486.2 16.8 484.6 21.8 478.3 26.5 473.2 26.8 472.9 31.8 468.6 36.8 464.1 40.7 460.2 41.8 458.6 46.8 448.4 47.2 447.2 48.4 434.3 48.2 421.3 48.2 408.3 48.6 395.3 49.5 382.3 51.1 369.4 51.8 364.8 53 356.4 55.4 343.4 56.8 336.9 58.3 330.4 61.8 317.4 61.8 317.3 65.6 304.5 66.8 300.3 69.3 291.5 71.8 281.3 72.4 278.5 75.2 265.5 76.8 257.7 77.8 252.6 80.6 239.6 81.8 234.7 83.8 226.6 86.8 215.7 87.4 213.6 91 200.6 91.8 197.6 94.6 187.7 96.8 180.4 98.6 174.7 101.8 165.1 103 161.7 106.8 151.4 107.8 148.7 111.8 139.1 113.3 135.7 116.8 127.7 119.1 122.8 121.8 117.2 125.7 109.8 126.8 107.8 131.8 99.4 133.5 96.8 136.8 91.6 141.8 84.4 142.2 83.8 146.8 77 151.2 70.8 151.8 69.8 156.8 62.3 160 57.9 161.8 54.9 166.8 47.5 168.7 44.9 171.8 40.5 176.8 34.1 178.8 31.9 176.8 31.9 171.8 31.9 166.8 31.9 161.8 31.9 156.8 31.9 151.8 31.9 146.8 31.9 141.8 31.9 137.6 31.9 136.8 33.2 131.8 42.5 130.6 44.9 126.8 51.1 123 57.9 121.8 59.7 116.8 68.2 115.3 70.8 111.8 76.6 107.6 83.8 106.8 85.2 101.8 94 100.3 96.8 96.8 103.4 93.6 109.8 91.8 113.4 87.3 122.8 86.8 123.8 81.8 134.2 81.1 135.7 76.8 145.2 75.2 148.7 71.8 157.3 70 161.7 66.8 170.4 65.1 174.7 61.8 183.7 60.2 187.7 56.8 197.4 55.6 200.6 51.8 212.8 51.6 213.6 48 226.6 46.8 231.7 44.9 239.6 42.2 252.6 41.8 254.6 39.7 265.5 37.3 278.5 36.8 281.2 34.9 291.5 32.5 304.5 31.8 308.3 30.3 317.4 28.4 330.4 27 343.4 26.8 345.5 25.8 356.4 24.7 369.4 23.7 382.3 22.9 395.3 22.1 408.3 21.8 413.4 21.3 421.3 19.2 434.3 16.8 438 11.8 444.3 9.1 447.2 6.8 448.9 1.8 452.5 1.1 453.1 1.1 459.8 1.1 460.2 1.1 471.4 1.1 473.2 1.1 484.4 1.1 486.2 1.1 497.4 1.1 499.2 1.1 510.4 1.1 512.1"/>
          <polygon class="cls-11" points="1.1 451.8 1.1 453.1 1.8 452.5 6.8 448.9 9.1 447.2 11.8 444.3 16.8 438 19.2 434.3 21.3 421.3 21.8 413.4 22.1 408.3 22.9 395.3 23.7 382.3 24.7 369.4 25.8 356.4 26.8 345.5 27 343.4 28.4 330.4 30.3 317.4 31.8 308.3 32.5 304.5 34.9 291.5 36.8 281.2 37.3 278.5 39.7 265.5 41.8 254.6 42.2 252.6 44.9 239.6 46.8 231.7 48 226.6 51.6 213.6 51.8 212.8 55.6 200.6 56.8 197.4 60.2 187.7 61.8 183.7 65.1 174.7 66.8 170.4 70 161.7 71.8 157.3 75.2 148.7 76.8 145.2 81.1 135.7 81.8 134.2 86.8 123.8 87.3 122.8 91.8 113.4 93.6 109.8 96.8 103.4 100.3 96.8 101.8 94 106.8 85.2 107.6 83.8 111.8 76.6 115.3 70.8 116.8 68.2 121.8 59.7 123 57.9 126.8 51.1 130.6 44.9 131.8 42.5 136.8 33.2 137.6 31.9 136.8 31.9 131.8 31.9 126.8 31.9 121.8 31.9 116.8 31.9 111.8 31.9 106.8 31.9 101.8 31.9 96.8 31.9 91.8 31.9 86.8 31.9 81.8 31.9 76.8 31.9 71.8 31.9 66.8 31.9 61.8 31.9 56.8 31.9 51.8 31.9 46.8 31.9 41.8 31.9 36.8 31.9 31.8 31.9 26.8 31.9 21.8 31.9 16.8 31.9 11.8 31.9 6.8 31.9 1.8 31.9 1.1 31.9 1.1 42.8 1.1 43.2 1.1 44.9 1.1 56.1 1.1 57.9 1.1 69.1 1.1 70.8 1.1 82 1.1 83.8 1.1 95 1.1 96.8 1.1 108 1.1 109.8 1.1 121 1.1 122.8 1.1 134 1.1 135.7 1.1 146.9 1.1 148.7 1.1 159.9 1.1 161.7 1.1 172.9 1.1 174.7 1.1 185.9 1.1 187.7 1.1 198.9 1.1 200.6 1.1 211.8 1.1 213.6 1.1 224.8 1.1 226.6 1.1 237.8 1.1 239.6 1.1 250.8 1.1 252.6 1.1 263.8 1.1 265.5 1.1 276.7 1.1 278.5 1.1 289.7 1.1 291.5 1.1 302.7 1.1 304.5 1.1 315.7 1.1 317.4 1.1 328.7 1.1 330.4 1.1 341.6 1.1 343.4 1.1 354.6 1.1 356.4 1.1 367.6 1.1 369.4 1.1 380.6 1.1 382.3 1.1 393.5 1.1 395.3 1.1 406.5 1.1 408.3 1.1 419.5 1.1 421.3 1.1 432.5 1.1 434.3 1.1 445.5 1.1 447.2 1.1 451.8"/>
          <g class="cls-3">
            <path class="cls-29" d="M643.7,813.8l3.3-.5,2.7.5M705.5,813.8l1.5-1.3,2-1.8M709.1,810.7l3-2.6,5-4.6,5-4.6,1.7-1.1M753.7,797.7l3.4,2.2,5,3.9,5,4.1,5,1.8h5c0,.1,1.5-.1,1.5-.1M723.7,797.7l3.3-2.3,5-2.1,5-1.1h5c0,0,5,1.8,5,1.8l5,2.7,1.7,1.1M317.8,538.1l-.9,3.3-5,5.6-5-4.4-2.1-4.5M304.8,538.1l-2.9-8.4-1.2-4.6M319.1,525.1l-1.3,13M300.7,525.1l-2.7-13M319.1,512.1v13M298,512.1l-1-13M317.1,499.2l2,13M297,499.2l4.8-13M308.6,486.2l3.2,2.7,5,9.8.2.5M301.8,486.2h.1c0-.1,5-1.1,5-1.1l1.8,1.1M324.4,813.8l2.5-.7,5-.7,5,.5,1.8.8M540,813.8l.3-3.1M540.2,810.7l1.7-11.8.2-1.2M542.1,797.7l3-13M545.2,784.7l1.8-5.8,2.6-7.2M549.6,771.7l2.4-5.6,4.1-7.4M655,758.8l2,.8,5,2.7,5,2.9,5,2.1,5,1.8,5,2.4,5-.5,5-2.7,5-3.8,5-3.6,3.1-2M556,758.8l.9-1.4,5-5.5,5-3.9,3.5-2.1M597.5,745.8l4.5,1.7,5,1.6,5,.7h5c0,.1,5,.6,5,.6l5,1.3,5,1.2,5,1,5,1.1,5,1.2,5,1.4,3,1.3M705.1,758.8l1.9-1.5,5-4.1,5-3.9,5-3.3h.3M570.5,745.8l1.5-.9,5-2,5-.7,5,.6,5,1.2,5,1.6.5.2M722.3,745.8l4.7-2.1,5-1.6,5-1.5,5-1.3,5-.7,5-.3h5c0,0,5,.1,5,.1h5c0,0,5-1.9,5-1.9l5-3,1.3-.7M778.4,732.8h.1M333.1,654.9l-1.2,1.3-5,4.4-5,3.1-5,1.9-5,.9-5-.5-5-2.1-5-4.1-3.9-4.8M293,654.9l-1.1-1.4-5-7.2-2.9-4.5M344,641.9l-2.1,2.9-5,6.2-3.8,3.9M284,641.9l-2.1-3.2-5-7.5-1.5-2.3M350.8,629l-3.9,8.1-2.9,4.9M275.4,629l-3.5-5.2-5-7.4-.3-.4M354.8,616l-2.9,9.8-1.1,3.2M266.6,616l-4.7-7-4.2-5.9M357.4,603l-.5,3-2.1,9.9M257.7,603l-.8-1.2-5-6.3-5-5.2-.3-.3M358.9,590l-1.4,13M246.6,590l-4.7-3.8-5-2.6-5-1.8-5-1.5-5-2.4-1.2-.8M359.5,577l-.6,13M220.7,577l-3.8-2.8-5-4.1-5-3.4-5-2.7h0M359.5,564.1v13M201.8,564.1l-5-2.5-5-2.3-5-2.1-5-2.1-5-1.8-5-1.5-1.6-.6M359.1,551.1l.4,13M170.3,551.1l-3.4-1.4-5-3.6-5-5.3-1.9-2.6M358.4,538.1l.8,13M155,538.1l-3.1-5-3.9-8M357.4,525.1l1,13M148,525.1l-1.1-2.7-3.4-10.2M356.7,512.1l.2,3.4.5,9.6M143.4,512.1l-1.6-5.4-1.8-7.6M356.4,499.2l.4,13M140,499.2l-2.6-13M356,486.2l.4,13M137.3,486.2l-.5-3.6-1.2-9.4M355.7,473.2l.3,13M135.6,473.2l-.7-13M355.3,460.2l.4,13M134.9,460.2l.8-13M354.5,447.2l.7,13M135.7,447.2l1.1-6.5,1.2-6.5M353.4,434.3l1.2,13M138.1,434.3l3.5-13M351.5,421.3l.4,2.2,1.5,10.7M141.6,421.3l.2-.8,4.3-12.2M348.3,408.3l3.2,13M146.1,408.3l.7-1.9,5-10.2.5-.8M341.9,395.3h0s5,9.5,5,9.5l1.4,3.5M152.4,395.3l4.5-5.5,5-4.8,3.3-2.7M329.7,382.3l2.2,1.9,5,5.1,5,6M165.2,382.3l1.7-1.4,5-2.7,5-1.6,5-.2,5-1.1,5-3.8,1.4-2.3M310.2,369.4l1.7,1,5,3.3,5,3.3,5,3.4,2.8,2M193.3,369.4l3.6-4.3,5-6.1,2.3-2.5M253.3,356.4l3.6,2.1,5,1.8,5,.9,5,.2,5,.5,5,.7,5,.7,5,.4,5,.7,5,1.3,5,2.1,3.3,1.7M204.1,356.4l2.7-2.5,5-4.2,5-2.9,5-1.2,5,.2,5,.7,5,1.3,5,2,5,2.8,5,3.1,1.4.8M243.9,813.8l.3-3.1M466.8,810.7v.2c.1,0,3,2.9,3,2.9M498,813.8l1.6-3.1M244.2,810.7l1.1-13M458.5,797.7l3.4,6,4.9,7M499.6,810.7l2.4-4.4,3.4-8.6M245.3,797.7l.9-13M453.1,784.7l3.8,9.9,1.6,3.1M505.4,797.7l1.6-3.6,3.3-9.4M246.2,784.7l.6-13M449.1,771.7l2.8,9.6,1.2,3.4M510.3,784.7l1.7-4.1,3.2-8.9M246.8,771.7v-13M445.9,758.8l1.1,4.3,2.2,8.7M515.2,771.7l1.8-4.4,3.2-8.6M246.8,758.8l-.9-13M442.4,745.8l3.5,13M520.2,758.8l1.8-4.5,3.3-8.5M245.8,745.8l-1.9-13M438.4,732.8l3.6,11.3.5,1.6M525.3,745.8l1.7-3.8,3.8-9.1M243.9,732.8l-2-8.7-1.2-4.2M434.6,719.8l2.3,7.8,1.4,5.2M530.8,732.8l1.2-2.8,4.4-10.2M240.7,719.8l-3.8-10-1.5-3M431.1,706.8l.9,2.9,2.7,10.1M536.3,719.8l.6-1.3,5-9.1,1.8-2.5M235.4,706.8l-3.5-5.7-4.6-7.3M427.5,693.9l3.6,13M543.8,706.8l3.2-3.8,5-4.1,5-2.8,5-2,.7-.2M227.3,693.9l-.4-.5-5-8.1-2.5-4.3M424.6,680.9l2.3,10.4.6,2.6M562.6,693.9l4.3-1.5,5-1.8,5-1.8,5-1.7,5-2,5-2.2,4.1-2M219.4,680.9l-2.5-4.1-4.7-8.8M422.6,667.9l2,13M596,680.9l.9-.5,5-2.5,5-2.2,5-2,5-1.8,5-1.7,5-1.7,1.3-.5M212.2,667.9l-.3-.6-5-11-.6-1.4M421,654.9l1,7.3.7,5.7M628.3,667.9l3.7-1.2,5-2.3,5-3,5-3.6,3.8-2.9M206.3,654.9l-4.4-10-1.2-3M419.2,641.9l1.7,13M650.8,654.9l1.2-.9,5-3.4,5-3.1,5-3,5-2.6h.1M696,641.9l1,.3,5,1.8,5,1.8,5,1.8,5,1.7,5,1.2,5,1.1,5,.7,5,.2,5-.3,5-.7,5-.9,5-.8,5-.7,5-.7,5-.9,5-.8,1.5-.2M200.6,641.9l-3.8-8.2-2-4.8M417.8,629l1.4,13M672.2,641.9l4.9-1.6,5-.8h5s5,1,5,1l4,1.4M194.9,629l-3-6.1-3.4-6.8M416.9,616v.9c0,0,.9,12.1.9,12.1M188.5,616l-1.6-2.7-5-7.2-2.8-3.1M416.1,603l.7,13M179.1,603l-2.2-2-5-3.8-5-3.6-4.3-3.5M415.2,590l.9,13M162.5,590l-.7-.5-5-4.6-5-5.7-1.6-2.2M413.6,577l1.6,13M150.2,577l-3.4-4.6-4.9-8.3M411.6,564.1l.3,2,1.6,11M142,564.1v-.2c-.1,0-5.1-10.9-5.1-10.9l-.7-1.8M409.6,551.1l2,13M136.1,551.1l-4.3-12.7v-.3M408.3,538.1l1.4,13M131.7,538.1l-3.3-13M408.3,525.1v13M128.5,525.1l-1.6-8.1-.9-4.9M409.6,512.1l-1.3,13M125.9,512.1l-2.2-13M411.5,499.2l-1.9,13M123.7,499.2l-1.9-13h0M414.7,486.2l-2.7,11.2-.4,1.8M121.8,486.2l-1.7-13M419.1,473.2l-2.2,6.6-2.3,6.4M120.1,473.2l-.9-13M423.5,460.2l-1.6,5.2-2.8,7.8M119.3,460.2l.4-13M426.4,447.2l-2.9,13M119.6,447.2l1.8-13M427.8,434.3l-.9,9-.5,4M121.4,434.3l.4-1.9,2.6-11M428,421.3l-.2,13M124.4,421.3l2.4-8.2,1.4-4.8M426.8,408.3v1.2c.1,0,1.2,11.7,1.2,11.7M128.2,408.3l3.6-11.4.5-1.6M424.1,395.3l2.7,13M132.3,395.3l4.5-12.4.2-.6M420.4,382.3l1.5,5.1,2.2,7.9M137.1,382.3l4.8-10.9,1-2M414.7,369.4l2.2,4.9,3.5,8.1M142.8,369.4l4-8,2.7-4.9M406.6,356.4l.3.4,5,7.9,2.8,4.7M149.6,356.4l2.3-4.4,4.8-8.5M396.6,343.4l.3.4,5,6.3,4.7,6.3M156.7,343.4l.2-.3,5-8.5,2.7-4.1M384.4,330.4l2.5,2.5,5,5.3,4.7,5.2M164.5,330.4l2.3-4.1,5-8,.6-.9M367.2,317.4l4.7,2.9,5,3.6,5,4.1,2.5,2.3M172.5,317.4l4.4-7.2,3.6-5.7M329.1,304.5l2.8,2.1,5,2.8,5,1.8,5,1,5,.7,5,.9,5,1.4,5,2.2.3.2M180.5,304.5l1.4-2.3,5-8.8,1-1.8M318.8,291.5l3.1,5.1,5,5.9,2.2,2M187.9,291.5l4-6.7,3.5-6.2M312.8,278.5l4,9.5,1.9,3.5M195.4,278.5l1.5-2.7,5-8.8.9-1.5M308,265.5l3.9,10.6,1,2.3M202.7,265.5l4.1-7.2,3.2-5.8M304.5,252.6l2.4,9,1.1,4M210.1,252.6l1.8-4.4,3.6-8.6M301.1,239.6l.8,3,2.6,10M215.5,239.6l1.4-4.1,3.4-8.9M297,226.6l4,13M220.3,226.6l1.6-4.3,3.7-8.7M290.7,213.6l1.1,2.1,5,10.5.2.4M225.6,213.6l1.3-2.5,5-7.7,2.3-2.8M279,200.6l2.8,2.6,5,5.5,3.9,4.9M234.1,200.6l2.7-2.3,5-3.1,5-2.1,5-1.1h5c0-.1,5,.6,5,.6l5,1.4,5,2.2,5,2.9,2.2,1.5M182.8,813.8l1.7-3.1M184.6,810.7l2.3-5.7,2.4-7.3M189.2,797.7l2.1-13M191.4,784.7v-13M191.5,771.7l-1.3-13M190.2,758.8l-2.2-13M187.9,745.8l-1.1-5.2-1.5-7.8M185.3,732.8l-2.6-13M182.7,719.8l-.8-3.8-2-9.2M473.8,706.8l3.1,5.4,5,4.8,5,1.7,5-1.4,5-3.5,5-5.4,1.2-1.6M179.9,706.8l-3-12.3-.2-.7"/>
            <path class="cls-29" d="M468.6,693.9l3.4,9.1,1.9,3.9M503.1,706.8l3.8-5.5,4.6-7.5M176.7,693.9l-3.6-13M464.6,680.9l2.3,8.2,1.6,4.8M511.6,693.9l.4-.6,5-9.1,1.7-3.3M173,680.9l-1.2-3.7-3.2-9.3M461.6,667.9l.4,1.8,2.7,11.2M518.7,680.9l3.3-6.6,3.3-6.4M168.7,667.9l-1.8-4.5-3.7-8.5M459.5,654.9l2,13M525.3,667.9l1.7-3.5,5-8.8.4-.6M163.1,654.9l-1.3-2.4-5-9.7-.4-.8M458.3,641.9l1.2,13M532.4,654.9l4.6-6.3,5-4.7,3.1-1.9M156.4,641.9l-4.6-8-2.7-5M458,629l.3,13M545.1,641.9l1.9-1.1,5-1.9,5-1.2,5-1,5-1,5-1.2,5-1.5,5-1.9,4.6-2.2M149.2,629l-2.3-3.8-5-9v-.2M458.8,616l-.8,13M586.6,629l.4-.2,5-2.6,5-2.6,5-2.5,5-2.5,4.5-2.5M141.8,616l-4.9-8.9-1.9-4M460.8,603l-1.9,13M611.5,616l.5-.3,5-3,5-2.9,5-3.2,4.9-3.6M134.9,603l-3.1-6.3-2.8-6.7M463.5,590l-1.5,6.8-1.2,6.2M631.9,603h0s5-4.2,5-4.2l5-4.2,5-4.4h0M129,590l-2.2-5.5-2.6-7.5M466.6,577l-3.1,13M647.1,590l4.9-4.5,5-4.3,5-4.1h0M124.2,577l-2.4-7.9-1.4-5M469.7,564.1l-2.8,11.6-.3,1.3M662.1,577l5-4.1,5-3.8,5-3.1,4.4-2.1M707.4,564.1l4.6,2,5,2.7,5,2.5,5,2.6,5,2,5,.7,5-.7,5-1.8,5-2.9,5-3.9,3.4-3.1M120.5,564.1l-3-13M472.2,551.1l-.2,1.3-2.2,11.7M681.4,564.1l.6-.3,5-1.7,5-.7h5c0,0,5,.9,5,.9l5,1.7.4.2M760.4,564.1l1.6-3.4,3.5-9.5M117.5,551.1l-.7-3.3-1.8-9.7M473.5,538.1l-1.3,13M765.6,551.1l-2-13M115,538.1l-2.2-13M473.7,525.1l-.2,13M763.6,538.1l-1.5-4.7-2.2-8.3M112.8,525.1l-1-6.1-1.1-6.9M472.9,512.1l.8,13M759.9,525.1l-2.8-12.5v-.4M110.7,512.1l-2-13M471.2,499.2l.7,5.9,1,7.1M757,512.1l-2-13M108.7,499.2l-1.9-12.9h0M469.2,486.2l2,13M754.9,499.2l-.9-13M106.8,486.2l-1.7-13M467.2,473.2l2,13M754,486.2v-13M105.1,473.2l-1.1-13M465,460.2l1.9,11.5.3,1.5M754.1,473.2l.9-13M104,460.2l-.2-13M463.1,447.2l1.9,13M755,460.2l1.8-13M103.8,447.2l.9-13M461.8,434.3l.2,1.6,1.1,11.4M756.8,447.2l.2-1,2.6-11.9M104.7,434.3l2.1-13M461,421.3l.7,13M759.6,434.3l2.4-9,1-4M106.8,421.3v-.2c0,0,3.2-12.8,3.2-12.8M460.5,408.3l.6,13M763.1,421.3l3.5-13M110,408.3l1.8-5.9,2.2-7.1M459.8,395.3l.7,13M766.6,408.3l.5-2,2.5-11M114.1,395.3l2.8-7.4,2.2-5.5M459.1,382.3l.7,13M769.6,395.3l2.2-13M119,382.3l2.8-6.5,2.7-6.4M458.4,369.4l.8,13M771.8,382.3l.3-2.2,1.3-10.8M124.5,369.4l2.3-5.1,3.6-7.9M457.5,356.4l.9,13M773.4,369.4l1.3-13M130.4,356.4l1.4-3.2,4.3-9.8M456.3,343.4l.6,6.3.5,6.7M774.7,356.4l1.3-13M136.2,343.4l.7-1.7,4.5-11.3M454.1,330.4l2.2,13M776,343.4l1.1-9,.5-4M141.3,330.4l.5-1.4,4.1-11.5M449.1,317.4l2.8,6,2.2,7M777.5,330.4l1-6.6M146,317.4l.9-2.8,3.5-10.2M437.2,304.5l4.7,4.1,5,5.6,2.2,3.4M150.3,304.5l1.5-4.5,3.2-8.5M419.5,291.5l2.4,1.8,5,3.6,5,3.6,5,3.7.3.2M155.1,291.5l1.8-4.4,3.7-8.6M403.8,278.5l3.1,2.8,5,4.3,5,4,2.6,1.9M160.5,278.5l1.3-3.4,4-9.6M389.9,265.5l2,1.9,5,4.7,5,4.7,1.9,1.7M165.9,265.5l1-2.5,4.4-10.5M375.9,252.6l1,.8,5,4.4,5,4.8,3,3M171.2,252.6l.6-1.8,3.9-11.2M357.5,239.6l4.5,2.9,5,3.2,5,3.5,4,3.4M175.7,239.6l1.1-3.9,2.6-9M343.7,226.6l3.2,4,5,4.7,5,3.9.5.4M179.4,226.6l2.4-8.3,1.3-4.6M336.3,213.6l.6,1.3,5,9.2,1.8,2.5M183.2,213.6l3.7-10.9.7-2.1M330.8,200.6l1.1,2.8,4.4,10.2M187.6,200.6l4.3-9.8,1.4-3.1M324.7,187.7l2.2,4.6,3.9,8.4M193.2,187.7l3.6-6.6,3.7-6.4M315.9,174.7l1,1.3,5,7.2,2.8,4.4M200.5,174.7l1.3-1.9,5-6.6,3.8-4.5M303.8,161.7l3.1,2.8,5,5.4,4,4.9M210.7,161.7l1.2-1.2,5-4.5,5-3.6,5-2.8,1.9-.8M281.3,148.7l.6.2,5,2.2,5,2.5,5,3,5,3.5,1.9,1.6M228.8,148.7l3.1-1.2,5-1.4,5-1.2,5-.9,5-.6h5c0-.1,5,.3,5,.3l5,.8,5,1.2,5,1.5,4.4,1.6M82.6,813.8l1.1-3.1M83.7,810.7l3.1-9.1,1.5-3.9M88.3,797.7l3.5-10,1.4-3M93.2,784.7l3.6-9.9,1.9-3.1M98.7,771.7l3.1-5.5,5-5,4-2.5M110.8,758.8l1-.7,5-4,5-7.3.4-.9M122.2,745.8l3.3-13M125.6,732.8l1.3-12.7v-.3M126.8,719.8v-13M126.9,706.8v-1c0,0-1-12-1-12M125.9,693.9l-2.1-13M123.8,680.9l-2-9.1-.9-3.9M121,667.9l-3.4-13M117.6,654.9l-.7-2.6-2.8-10.4M114.1,641.9l-2.2-8.3-1.2-4.6M110.7,629l-3.1-13M107.6,616l-.8-3.5-1.9-9.5M104.9,603l-2.5-13M102.4,590l-.6-3.2-1.7-9.7M100.1,577l-1.6-13M98.5,564.1l-1.1-13M567.9,551.1l4.1.9,5,.4h5c0,0,5,0,5,0l5-.6,2.8-.7M97.5,551.1l-.6-7-.6-6M546.1,538.1l.9.7,5,2.9,5,3.1,5,3.4,5,2.6.9.2M594.8,551.1l2.2-.6,5-2.5,5-3.4,5-3.9,3.1-2.5M96.2,538.1l-1.8-13M536.8,525.1l.2.4,5,8.4,4.1,4.2M615,538.1l1.9-1.9,5-5,5-5.3.8-.9M94.5,525.1l-1.9-13M532.7,512.1l4.1,13M627.8,525.1l4.2-5.2,5-6.2,1.2-1.5M92.6,512.1l-.8-7.1-.6-5.8M529.8,499.2l2.1,9.9.7,3.1M638.2,512.1l3.8-5.5,4.9-7.4M91.2,499.2l-1.2-13M527.7,486.2l2.2,13M646.9,499.2v-.2c.1,0,5.1-9.6,5.1-9.6l1.6-3.2M90.1,486.2l-.7-13M526,473.2l.9,7.5.7,5.5M653.6,486.2l3.4-9.4,1.2-3.6M89.4,473.2l-.5-13M522.4,460.2l3.7,13M658.2,473.2l3.2-13M88.9,460.2l-.3-13M514.9,447.2l2,3.5,5,8.8.4.7M661.4,460.2l.6-3.3,1.7-9.7M88.6,447.2v-13M506.5,434.3l.5.8,5,7.7,3,4.5M663.7,447.2l2-13M88.7,434.3l.8-13M501.3,421.3l.7,1.9,4.5,11M665.7,434.3l1.3-7.5,1-5.5M89.5,421.3l1.9-13M499.3,408.3l2,13M668,421.3l3.3-13M91.5,408.3l.4-1.6,3.1-11.4M498.1,395.3l1.2,13M671.3,408.3l.7-2.1,4.3-10.9M94.9,395.3l1.9-6,2.6-7M496.6,382.3l.3,3.1,1.2,9.9M676.4,395.3l.7-1.4,5-7.9,3.1-3.7M99.4,382.3l2.4-5.6,3.3-7.4M495.5,369.4l1.2,13M685.1,382.3l1.9-1.9,5-4.1,5-3.7,4.5-3.3M105.2,369.4l1.7-3.4,4.3-9.5M495,356.4l.4,13M701.5,369.4l.5-.4,5-3.8,5-4.7,3.4-4.1M111.1,356.4l.7-1.7,4.6-11.3M495.6,343.4l-.5,13M715.4,356.4l1.6-2.1,5-8.6,1-2.3M116.4,343.4l.4-1.2,4.2-11.8M496.6,330.4l-1.1,13M723.1,343.4l4-9.2,1.4-3.8M121,330.4l.8-2.8,3.1-10.2M497,317.4v2c0,0-.4,11-.4,11M728.4,330.4l3.6-11,.6-2M124.9,317.4l1.9-7.8,1.3-5.2M495.7,304.5l1.2,12.4v.6M732.6,317.4l3.2-13M128.1,304.5l3.1-13M492.8,291.5l2.9,13M735.8,304.5l1.2-5,1.8-8"/>
            <path class="cls-29" d="M131.3,291.5l.6-2,3.2-11M489.4,278.5l2.5,9.8.8,3.2M738.8,291.5l3.2-12.6v-.4M135,278.5l1.8-6.4,2-6.6M485.9,265.5l1,3.8,2.5,9.2M742.1,278.5l3.7-13M138.8,265.5l3-10.4.8-2.6M482,252.6l3.9,13M745.9,265.5l1.2-3.5,3-9.4M142.6,252.6l3.8-13M476.3,239.6l.6,1.2,5,11.7h0M750.1,252.6l2-5.6,2.6-7.4M146.5,239.6l.4-1.3,3.4-11.6M467.2,226.6l4.8,6,4.4,7M754.6,239.6l2.4-6.2,2.6-6.7M150.2,226.6l1.6-5.8,2-7.2M447.5,213.6l4.5,1.8,5,2.7,5,3.6,5,4.5.2.3M759.6,226.6l2.4-6.1,2.7-6.9M153.9,213.6l3-9.3,1.2-3.7M418.8,200.6l3.2,2.5,5,3,5,2.2,5,1.8,5,1.6,5,1.6.5.2M764.8,213.6l2.3-5.6,2.9-7.3M158,200.6l3.8-9.6,1.4-3.4M406.7,187.7l.2.2,5,5.9,5,5.3,1.8,1.6M770,200.6l2.1-5,3.3-7.9M163.2,187.7l3.6-7.2,3-5.8M395.5,174.7l1.4,1.4,5,5.7,4.8,5.8M775.3,187.7l1.7-4,1.5-3.4M169.9,174.7l2-3.4,5-8.5.6-1M381.2,161.7l.7.5,5,4.1,5,4.7,3.6,3.6M177.4,161.7l4.4-7.1,3.6-5.9M361.9,148.7h0s5,3.5,5,3.5l5,3.2,5,3.2,4.3,3.1M185.5,148.7l1.4-2.1,5-7.1,2.9-3.8M346.9,135.7h0s5,5,5,5l5,4.3,5,3.7M194.8,135.7l2.1-2.3,5-5.1,5-4.5,1.3-1M334.5,122.8l2.4,2.5,5,5.3,5,5.2M208.1,122.8l3.7-2.9,5-3.4,5-2.9,5-2.5,3.3-1.3M319.6,109.8l2.3,1.6,5,4.1,5,4.6,2.6,2.6M230.1,109.8l1.7-.7,5-1.7,5-1.5,5-1.3,5-1.2,5-.9,5-.8,5-.7,5-.6,5-.5,5-.3h5s5,.4,5,.4l5,.8,5,1,5,1.5,5,2.1,5,2.8,2.7,1.8M1.1,785l.7.7,5,3,5,.9h5c0-.1,5-.9,5-.9l5-1.2,5-2.5.3-.3M32.1,784.7l4.7-4.5,5-7.7.3-.7M42.1,771.7l3.5-13M45.7,758.8l1.1-6.1,1-6.9M47.8,745.8l1.1-13M48.9,732.8l.5-13M49.3,719.8v-13M49.4,706.8v-13M49.4,693.9l.2-13M49.6,680.9l.4-13M50,667.9l.6-13M50.7,654.9l.5-13M51.1,641.9v-13M51.2,629l-.4-13M50.8,616l-1-13M49.9,603l-3.1-10-.8-3M46,590l-4.2-11.5-.4-1.5M41.4,577l-.5-13M40.9,564.1l.9-2.6,4.6-10.4M46.4,551.1l.4-.6,5-6.8,4.1-5.5M55.9,538.1l.9-1.4,5-9.3.9-2.3M62.7,525.1l4.1-12.4v-.6M67,512.1l3-13M70,499.2l1.8-11.6.2-1.4M72,486.2l2.2-13M74.2,473.2l1.4-13M75.6,460.2l.4-13M76.1,447.2v-13M76.1,434.3l.3-13M76.4,421.3l.4-5.2.7-7.7M77.5,408.3l2-13M79.4,395.3l2.4-11.4.4-1.6M82.2,382.3l3.7-13M85.9,369.4l.9-3.1,3.3-9.9M90.1,356.4l1.7-5,3.1-8M95,343.4l1.9-5.2,2.9-7.8M99.8,330.4l2.1-6.5,2.1-6.5M103.9,317.4l2.9-10.9.5-2.1M107.4,304.5l2.9-13M110.3,291.5l1.5-6.7,1.4-6.3M113.3,278.5l3-13M628.2,265.5l3.8,1.2,5,1,5,.3,5-.4,5-1,3.5-1.1M116.3,265.5l.5-2.3,2.6-10.7M604.2,252.6l2.8,2.3,5,3.4,5,2.8,5,2.2,5,1.9,1.2.4M655.5,265.5l1.5-.4,5-2,5-2.3,5-2.6,5-3,3.8-2.6M119.5,252.6l2.4-8.9,1.1-4.1M591.7,239.6l.3.4,5,5.8,5,5,2.2,1.9M680.8,252.6l1.2-.9,5-4.5,5-5.6,1.4-1.9M123,239.6l3.6-13M582.5,226.6l4.5,6.7,4.7,6.3M693.5,239.6l3.6-5,4.8-8M126.6,226.6l.2-.8,3.2-12.1M575,213.6l2,3.6,5,8.6.5.8M701.8,226.6l.2-.3,5-8.9,1.9-3.8M130.1,213.6l1.8-6.5,1.7-6.4M568.5,200.6l3.5,7.1,3,5.9M708.9,213.6l3.1-5.7,3.8-7.3M133.6,200.6l3.3-10.5.8-2.5M562.1,187.7l4.8,9.8,1.5,3.1M715.8,200.6l1.2-2.2,5-9.3.8-1.5M137.6,187.7l4.2-10.8.9-2.2M555,174.7l2,3.4,5,9.2.2.3M722.8,187.7l4.2-7.6,2.9-5.3M142.7,174.7l4.1-8.6,2.2-4.4M545.9,161.7l1.1,1.4,5,6.9,3,4.7M729.9,174.7l2.1-3.9,4.8-9.1M149.1,161.7l2.8-4.9,4.7-8.1M510.1,148.7l1.9.3,5,.2,5-.3,5-.2,5,1.3,5,2.8,5,4.5,3.9,4.3M736.9,161.7l.2-.3,5-9.6,1.5-3M156.6,148.7l.3-.5,5-8,2.8-4.5M481.1,135.7l.8.6,5,3.3,5,2.9,5,2.4,5,1.9,5,1.4,3.1.5M743.6,148.7l3.5-6.6,3.3-6.3M164.7,135.7l2.2-3.1,5-7.1,2-2.8M463,122.8l4,2.8,5,3.5,5,3.7,4.2,3M750.3,135.7l1.7-3.3,5-9.5v-.2M173.8,122.8l3-3.9,5-6.3,2.3-2.8M443.2,109.8l3.7,2.3,5,3.2,5,3.3,5,3.5,1,.7M757.1,122.8l4.9-9.4,1.8-3.6M184.2,109.8l2.7-3.2,5-5.5,4.2-4.3M424.4,96.8l2.6,2,5,3.7,5,3.4,5,3.2,1.3.8M763.9,109.8l3.2-6.2,3.4-6.8M196.1,96.8l.8-.8,5-4.7,5-4.2,4.3-3.3M405.4,83.8l1.6.8,5,3.1,5,3.4,5,3.7,2.4,1.9M770.5,96.8l1.6-3.3,4.7-9.7M211.2,83.8l.7-.5,5-3.4,5-3,5-2.6,5-2.5,2-1M355.8,70.8l1.2.5,5,1.5,5,1,5,.8,5,.6,5,.7,5,.8,5,1.3,5,1.7,5,2.3,3.4,1.9M776.8,83.8l.3-.6,1.5-3.2M233.9,70.8l3-1.6,5-2.7,5-2.6,5-2.7,5-2.6,1.5-.8M330.9,57.9l1,.5,5,2.7,5,2.8,5,2.8,5,2.6,3.8,1.6M258.3,57.9l3.5-2,5-2.7,5-2.5,5-2,5-1.5,5-.9,5-.4,5,.2,5,.6,5,1.1,5,1.5,5,1.9,5,2.2,5,2.5,4,2.2M1.1,600.4l.7-.4,5-4.6,3-5.4M9.8,590l2-9.9.3-3M12.1,577l1.2-13M13.3,564.1l3.3-13M16.6,551.1v-.4c.1,0,5.1-12,5.1-12l.3-.6M22,538.1l4.7-10.7,1.1-2.3M27.9,525.1l3.9-7.9,2.9-5M34.7,512.1l2.1-3.7,5-8.1.7-1.3M42.5,499.2l4.3-7,3.1-6M49.9,486.2l1.9-2.9,5-9.3.3-.8M57.1,473.2l4.5-13M61.6,460.2l.2-1.1,1.5-11.9M63.3,447.2l.2-13M63.5,434.3v-13M63.5,421.3l.5-13M64,408.3l1.1-13M65.1,395.3l1.7-12.3v-.7M66.9,382.3l2.6-13M69.5,369.4l2.3-9.8.8-3.2M72.6,356.4l3.6-13M76.2,343.4l.7-2.3,3.1-10.6M79.9,330.4l1.9-6.5,1.9-6.5M83.7,317.4l3.1-11.1.5-1.9M87.3,304.5l3.2-13M90.5,291.5l1.3-6,1.5-7M93.4,278.5l2.7-13M96.1,265.5l.7-3.5,2-9.5M98.8,252.6l3-12.8v-.2M101.9,239.6l3.5-13M105.3,226.6l1.5-5.4,2.1-7.6M108.9,213.6l2.9-10.8.6-2.2M112.4,200.6l3.8-13M116.2,187.7l.6-1.9,3.7-11M120.6,174.7l1.3-3.5,3.6-9.5M125.5,161.7l1.4-3.2,4.3-9.7M131.2,148.7l.7-1.4,5-9.8.9-1.7M627.5,135.7l4.5,3.7,5,3,5,2,5,1,5,.4,5-.3,5-.9,5-1.6,5-2.3,5-3,2.6-2M137.8,135.7l4.1-7.2,3.4-5.8M617,122.8h0c0,0,5,6.9,5,6.9l5,5.6.5.4M679.6,135.7l2.4-2,5-4.8,5-5.4.7-.8M145.2,122.8l1.6-2.6,5-7.6,2-2.8M609.6,109.8l2.3,4.6,5,8.4M692.7,122.8l4.3-5.5,5-6.8.5-.7M153.8,109.8l3-4.3,5-6.7,1.5-2M603.4,96.8l3.6,7.8,2.7,5.2M702.5,109.8l4.5-6.9,3.7-6M163.4,96.8l3.5-4.6,5-6.3,1.7-2.1M597.6,83.8l4.4,9.9,1.4,3M710.8,96.8l1.3-2.2,5-9.2.8-1.6M173.5,83.8l3.3-4.2,5-6,2.4-2.7M591.7,70.8l.3.6,5,11,.6,1.4M717.9,83.8l4.2-8.9,1.9-4.1M184.3,70.8l2.6-3,5-5.3,4.8-4.6M585.3,57.9l1.6,3.3,4.7,9.7M723.9,70.8l3.1-8.3,1.7-4.7M196.7,57.9l.2-.2,5-4.8,5-4.5,4-3.4M579,44.9l3,6.1,3.4,6.9M728.8,57.9l3.3-11.5.4-1.5M210.8,44.9l1-1,5-4.4,5-4.3,4.1-3.4M571.9,31.9h0c0,.1,5,9.2,5,9.2l2,3.8M732.4,44.9l2.5-13M1.1,517.1l.7-1.3,1.7-3.7M3.5,512.1l3.3-7.4,2.3-5.6M9.1,499.2l2.7-5.7,3.8-7.3M15.6,486.2l1.2-1.6,5-6.2,4.7-5.1M26.5,473.2l.3-.3,5-4.3,5-4.5,3.9-3.9M40.7,460.2l1.1-1.6,5-10.2.4-1.2M47.2,447.2l1.2-13M48.4,434.3l-.2-13M48.2,421.3v-13M48.2,408.3l.4-13M48.6,395.3l.9-13"/>
            <path class="cls-29" d="M49.5,382.3l1.6-13M51.1,369.4l.7-4.6,1.2-8.4M53,356.4l2.4-13M55.4,343.4l1.4-6.5,1.5-6.5M58.3,330.4l3.5-13M61.8,317.4v-.2c0,0,3.8-12.8,3.8-12.8M65.6,304.5l1.2-4.2,2.5-8.8M69.3,291.5l2.5-10.2.6-2.8M72.4,278.5l2.7-13M75.2,265.5l1.6-7.8,1-5.2M77.8,252.6l2.8-13M80.6,239.6l1.2-4.9,2-8.1M83.8,226.6l3-10.9.6-2.1M87.4,213.6l3.6-13M91,200.6l.9-3,2.7-9.9M94.6,187.7l2.3-7.3,1.7-5.7M98.6,174.7l3.3-9.5,1.2-3.4M103,161.7l3.8-10.3,1-2.6M107.8,148.7l4-9.6,1.4-3.4M113.3,135.7l3.6-8,2.3-5M119.1,122.8l2.7-5.5,3.9-7.5M125.7,109.8l1.1-2,5-8.4,1.6-2.6M133.5,96.8l3.4-5.2,5-7.3.4-.5M142.2,83.8l4.6-6.8,4.4-6.2M151.2,70.8l.6-1,5-7.5,3.1-4.5M160,57.9l1.9-2.9,5-7.4,1.9-2.6M168.7,44.9l3.1-4.4,5-6.3,2-2.3M1.1,453.1l.7-.6,5-3.6,2.3-1.6M9.1,447.2l2.7-2.9,5-6.3,2.4-3.8M19.2,434.3l2.1-13M21.3,421.3l.5-7.9.3-5.1M22.1,408.3l.8-13M22.9,395.3l.9-13M23.7,382.3l1-13M24.7,369.4l1-13M25.8,356.4l1-10.9.2-2.1M27,343.4l1.4-13M28.4,330.4l1.8-13M30.3,317.4l1.5-9.1.7-3.9M32.5,304.5l2.4-13M34.9,291.5l1.9-10.3.5-2.7M37.3,278.5l2.4-13M39.7,265.5l2.1-10.9.4-2.1M42.2,252.6l2.7-13M44.9,239.6l1.9-7.9,1.2-5.1M48,226.6l3.5-13M51.6,213.6l.2-.8,3.8-12.2M55.6,200.6l1.2-3.2,3.4-9.8M60.2,187.7l1.6-4,3.3-9M65.1,174.7l1.7-4.3,3.2-8.7M70,161.7l1.8-4.4,3.4-8.6M75.2,148.7l1.6-3.6,4.3-9.4M81.1,135.7l.7-1.5,5-10.4.5-1M87.3,122.8l4.5-9.3,1.7-3.6M93.6,109.8l3.3-6.3,3.5-6.6M100.3,96.8l1.5-2.7,5-8.8.8-1.4M107.6,83.8l4.2-7.3,3.5-5.7M115.3,70.8l1.5-2.7,5-8.5,1.1-1.8M123,57.9l3.9-6.8,3.8-6.2M130.6,44.9l1.3-2.3,5-9.3.7-1.3"/>
          </g>
        </g>
      </g>
      <polygon class="cls-25" points="703.3 196.3 426.9 35.8 366.9 1 306.9 35.8 30.5 196.3 1.4 213.2 1.4 637.7 30.5 654.6 310.4 817.1 367 849.9 423.7 817.1 703.5 654.6 732.7 637.7 732.7 213.2 703.3 196.3"/>
    </g>
    <g id="Layer_3">
      <g class="cls-4">
        <path class="cls-26" d="M619.3,451.1h17.4v13.5h-26.5l-43.9-65.8h-23.4v52.4h22.9v13.5h-57.6v-13.5h19.8v-116l-19.8-2.4v-12.8c7.5,1.7,14,2.9,22.2,2.9,12.3,0,24.9-2.9,37.2-2.9,23.9,0,46,10.9,46,37.4s-12.3,33.5-31.4,39.1l37.2,54.8ZM542.8,385.7l12.6.3c30.6.5,42.4-11.3,42.4-27s-13.3-25.6-30.1-25.6-16.2.7-24.9,1.7v50.6Z"/>
      </g>
      <text class="cls-24" transform="translate(167.3 300.4)"><tspan x="0" y="0">Geo</tspan></text>
      <text class="cls-27" transform="translate(84 465)"><tspan x="0" y="0">locato</tspan></text>
    </g>
    <g id="Layer_4">
      <g>
        <circle class="cls-16" cx="322.6" cy="592.6" r="6.7"/>
        <polygon class="cls-23" points="396.5 722.4 419.9 716.1 409.6 708.7 399.3 705.1 396.5 722.4"/>
        <path class="cls-22" d="M294.3,590.3l-1.9,17.1c-.7,6.5,1,12.5,4.9,16.9,0,0,101.7,114.2,99.1,98.2l2.7-17.4-105-114.8"/>
        <path class="cls-20" d="M474.1,617.5c-36,26.8-77.4,24.6-94.6,3.4-23.6-29-.8-91.8,32.7-111,4.5-2.6,24-13.8,44.6-5.9,8.5,3.3,14.1,8.5,18.3,12.7,6.1,5.9,24.3,23.8,24.1,51.4-.3,30.3-22.7,47.7-25.1,49.5"/>
        <path class="cls-20" d="M366.7,689c2,12.3-29.5,62.4-48.8,77.6-32.4,25.4-69.2-11.7-73.1-18-4.5-7.3-21.1-40.9-9.8-65.1,13.1-28,79.6-50.2,82-52.1"/>
        <path class="cls-18" d="M439.2,684.5l-24.3,21.6c-7,6.2-17.8,5.6-24-1.4l-92.6-103.9c-6.2-7-5.6-17.8,1.4-24l24.3-21.6c7-6.2,17.8-5.6,24,1.4l.9,1c6.3,7,6.1,6.8,6.2,7,.7.5,2.3,1.7,2.1,2.3h0l83.4,93.6c.7.8,4.7,5.4-1.4,24h0Z"/>
        <path class="cls-21" d="M403.4,701.8l-26.2-29.4c-2.9-3.3-3.7-7.9-2-12l2.1-5.2c2.8-6.8,8.5-12,15.6-14l8.7-2.5,38.5,21.2-17.5,6.3c-6.5,2.4-11.5,7.7-13.3,14.5l-5.8,21.1h-.1Z"/>
        <circle class="cls-17" cx="431.8" cy="688.9" r="29.7"/>
        <circle class="cls-19" cx="322.6" cy="592.6" r="9.6"/>
        <ellipse class="cls-15" cx="314.5" cy="630.9" rx="3.6" ry="13.6" transform="translate(-340 369) rotate(-41.7)"/>
        <ellipse class="cls-15" cx="366.7" cy="689" rx="3.6" ry="13.6" transform="translate(-365.5 418.5) rotate(-41.7)"/>
      </g>
    </g>
  </g>
</svg>